<?xml version="1.0" standalone="yes"?>
<svg xmlns="http://www.w3.org/2000/svg" width="631" height="468">
<path style="fill:#ffffff; stroke:none;" d="M0 0L0 468L631 468L631 0L0 0z"/>
<path style="fill:#b5a0a1; stroke:none;" d="M305 7L306 8L305 7z"/>
<path style="fill:#049950; stroke:none;" d="M144 39L144 47C161.984 45.9022 179.329 40.5588 197 37.5864C219.388 33.8206 241.734 30.0541 264 25.6288C277.984 22.8495 293.693 18.0205 308 17.8742C314.017 17.8127 321.044 20.0827 327 21.196C339.986 23.6234 352.973 26.2253 366 28.5756C392.025 33.2712 418.042 37.9235 444 42.9992C453.331 44.8238 462.835 45.5753 472 48L472 38C456.452 36.7318 442.223 32.4822 427 29.6111C398.971 24.3251 371.08 19.1257 343 14.4059C331.486 12.4705 319.734 7.73743 308 7.45523C297.646 7.20621 286.034 10.9169 276 13.2538C264.891 15.8411 253.241 17.4333 242 19.5401C220.993 23.4774 200.027 27.6003 179 31.5401C167.195 33.752 155.458 35.3298 144 39z"/>
<path style="fill:#b5a0a1; stroke:none;" d="M309 7L310 8L309 7M294 9L295 10L294 9M320 9L321 10L320 9M289 10L290 11L289 10M325 10L326 11L325 10z"/>
<path style="fill:#396b52; stroke:none;" d="M283 11L284 12L283 11M325 11C327.332 11.9845 329.457 11.9813 332 12C329.668 11.0154 327.543 11.0187 325 11z"/>
<path style="fill:#b5a0a1; stroke:none;" d="M278 12L279 13L278 12M336 12L337 13L336 12z"/>
<path style="fill:#396b52; stroke:none;" d="M274.667 13.3333C274.222 13.7777 275.278 13.7222 275.333 13.6667C275.778 13.2222 274.722 13.2778 274.667 13.3333M337 13C338.506 13.683 339.315 13.8259 341 14C339.494 13.3169 338.685 13.1741 337 13z"/>
<path style="fill:#b5a0a1; stroke:none;" d="M267 14L268 15L267 14z"/>
<path style="fill:#396b52; stroke:none;" d="M343 14C344.506 14.683 345.315 14.8259 347 15C345.494 14.317 344.685 14.1741 343 14z"/>
<path style="fill:#b5a0a1; stroke:none;" d="M347 14L348 15L347 14M262 15L263 16L262 15M352 15L353 16L352 15M251 17L252 18L251 17z"/>
<path style="fill:#396b52; stroke:none;" d="M308 17C309.248 17.6848 309.548 17.7488 311 18C309.752 17.3152 309.452 17.2512 308 17z"/>
<path style="fill:#b5a0a1; stroke:none;" d="M363 17L364 18L363 17M242 19L243 20L242 19z"/>
<path style="fill:#396b52; stroke:none;" d="M368 19C369.506 19.683 370.315 19.8259 372 20C370.494 19.317 369.685 19.1741 368 19z"/>
<path style="fill:#b5a0a1; stroke:none;" d="M372 19L373 20L372 19M291 20L292 21L291 20M323 20L324 21L323 20z"/>
<path style="fill:#396b52; stroke:none;" d="M373 20C374.769 20.7789 376.036 20.9124 378 21C376.231 20.2211 374.964 20.0876 373 20z"/>
<path style="fill:#b5a0a1; stroke:none;" d="M231 21L232 22L231 21M328 21L329 22L328 21z"/>
<path style="fill:#396b52; stroke:none;" d="M381.667 21.3333C381.222 21.7777 382.278 21.7223 382.333 21.6667C382.778 21.2222 381.722 21.2779 381.667 21.3333z"/>
<path style="fill:#b5a0a1; stroke:none;" d="M383 21L384 22L383 21M226 22L227 23L226 22z"/>
<path style="fill:#396b52; stroke:none;" d="M277 22C278.769 22.779 280.036 22.9124 282 23C280.231 22.2211 278.964 22.0876 277 22M333 22C334.506 22.683 335.315 22.8259 337 23C335.494 22.317 334.685 22.1741 333 22z"/>
<path style="fill:#b5a0a1; stroke:none;" d="M388 22L389 23L388 22z"/>
<path style="fill:#396b52; stroke:none;" d="M220 23C221.506 23.683 222.315 23.8259 224 24C222.494 23.317 221.685 23.1741 220 23z"/>
<path style="fill:#b5a0a1; stroke:none;" d="M275 23L276 24L275 23M339 23L340 24L339 23M215 24L216 25L215 24z"/>
<path style="fill:#396b52; stroke:none;" d="M267 24C268.506 24.683 269.315 24.8259 271 25C269.494 24.317 268.685 24.1741 267 24M344 24L345 25L344 24z"/>
<path style="fill:#b5a0a1; stroke:none;" d="M399 24L400 25L399 24M265 25L266 26L265 25M349 25L350 26L349 25z"/>
<path style="fill:#396b52; stroke:none;" d="M401 25C402.248 25.6848 402.548 25.7488 404 26C402.752 25.3152 402.452 25.2512 401 25M257.667 26.3333C257.222 26.7777 258.278 26.7222 258.333 26.6667C258.778 26.2222 257.722 26.2778 257.667 26.3333z"/>
<path style="fill:#b5a0a1; stroke:none;" d="M199 27L200 28L199 27M254 27L255 28L254 27M360 27L361 28L360 27M415 27L416 28L415 27z"/>
<path style="fill:#396b52; stroke:none;" d="M243 28C245.052 28.8743 246.747 28.9528 249 29C246.948 28.1258 245.253 28.0472 243 28z"/>
<path style="fill:#b5a0a1; stroke:none;" d="M249 28L250 29L249 28M307 28L308 29L307 28M365 28L366 29L365 28M188 29L189 30L188 29M300 29L301 30L300 29z"/>
<path style="fill:#e81c25; stroke:none;" d="M143 56L143 84C154.265 77.6847 167.836 74.8169 180 70.6173C213.293 59.1227 248.908 50.9139 284 48.0934C301.109 46.7182 318.833 48 336 48L334 49C338.316 50.8112 343.38 49.7713 348 50.0895C354.76 50.5551 361.17 51.9993 368 52L366 53C373.947 56.336 384.469 56.5109 393 58.5895C410.548 62.8651 427.85 67.9793 445 73.6729C452.963 76.3165 464.456 78.7737 471 84C474.21 76.3512 472 64.2878 472 56C456.779 55.3447 440.993 51.1277 426 48.4244C398.738 43.5091 371.362 38.9497 344 34.7253C331.863 32.8515 319.322 28.9175 307 29.0046C294.967 29.0898 282.849 32.896 271 34.7253C243.986 38.8958 216.871 43.2554 190 48.2608C174.756 51.1004 158.491 55.3331 143 56z"/>
<path style="fill:#b5a0a1; stroke:none;" d="M314 29L315 30L314 29M426 29L427 30L426 29M183 30L184 31L183 30z"/>
<path style="fill:#c34e54; stroke:none;" d="M319 30L320 31L319 30z"/>
<path style="fill:#b5a0a1; stroke:none;" d="M431 30L432 31L431 30z"/>
<path style="fill:#396b52; stroke:none;" d="M179 31L180 32L179 31z"/>
<path style="fill:#b5a0a1; stroke:none;" d="M233 31L234 32L233 31M289 31L290 32L289 31M325 31L326 32L325 31M381 31L382 32L381 31z"/>
<path style="fill:#396b52; stroke:none;" d="M435 31L436 32L435 31z"/>
<path style="fill:#b5a0a1; stroke:none;" d="M172 32L173 33L172 32z"/>
<path style="fill:#396b52; stroke:none;" d="M222 32C223.506 32.683 224.315 32.8259 226 33C224.494 32.317 223.685 32.1741 222 32z"/>
<path style="fill:#b5a0a1; stroke:none;" d="M226 32L227 33L226 32M282 32L283 33L282 32M332 32L333 33L332 32M388 32L389 33L388 32M442 32L443 33L442 32M277 33L278 34L277 33M337 33L338 34L337 33z"/>
<path style="fill:#396b52; stroke:none;" d="M442 33C447.741 36.1156 455.544 36.7228 462 37C456.467 34.0576 448.235 33.2684 442 33M212 34C213.769 34.7789 215.036 34.9124 217 35C215.231 34.221 213.964 34.0876 212 34z"/>
<path style="fill:#b5a0a1; stroke:none;" d="M271 34L272 35L271 34z"/>
<path style="fill:#c34e54; stroke:none;" d="M272 34L273 35L272 34M342 34L343 35L342 34z"/>
<path style="fill:#b5a0a1; stroke:none;" d="M343 34L344 35L343 34M210 35L211 36L210 35M264 35L265 36L264 35z"/>
<path style="fill:#c34e54; stroke:none;" d="M265 35L266 36L265 35M349 35L350 36L349 35z"/>
<path style="fill:#b5a0a1; stroke:none;" d="M350 35L351 36L350 35M404 35L405 36L404 35M205 36L206 37L205 36M259 36L260 37L259 36M355 36L356 37L355 36M409 36L410 37L409 36z"/>
<path style="fill:#396b52; stroke:none;" d="M147 37L148 38L147 37M195 37C196.769 37.7789 198.036 37.9124 200 38C198.231 37.221 196.964 37.0876 195 37z"/>
<path style="fill:#b5a0a1; stroke:none;" d="M254 37L255 38L254 37M360 37L361 38L360 37z"/>
<path style="fill:#396b52; stroke:none;" d="M467 37L468 38L467 37M143 38C143 41.5094 142.218 45.5689 145 48C144.114 44.2256 143.499 41.2718 147 39C145.494 38.317 144.685 38.1741 143 38z"/>
<path style="fill:#b5a0a1; stroke:none;" d="M194 38L195 39L194 38z"/>
<path style="fill:#c34e54; stroke:none;" d="M247 38L248 39L247 38M367 38L368 39L367 38z"/>
<path style="fill:#b5a0a1; stroke:none;" d="M420 38L421 39L420 38M189 39L190 40L189 39z"/>
<path style="fill:#c34e54; stroke:none;" d="M242 39L243 40L242 39M368 39C369.769 39.7789 371.036 39.9124 373 40C371.231 39.2211 369.964 39.0876 368 39z"/>
<path style="fill:#b5a0a1; stroke:none;" d="M425 39L426 40L425 39M184 40L185 41L184 40M236 40L237 41L236 40M378 40L379 41L378 40M430 40L431 41L430 40M229 41L230 42L229 41M385 41L386 42L385 41M173 42L174 43L173 42M224 42L225 43L224 42M390 42L391 43L390 42M441 42L442 43L441 42M168 43L169 44L168 43M219 43L220 44L219 43M395 43L396 44L395 43M446 43L447 44L446 43z"/>
<path style="fill:#396b52; stroke:none;" d="M161 44L162 45L161 44z"/>
<path style="fill:#b5a0a1; stroke:none;" d="M211 44L212 45L211 44z"/>
<path style="fill:#c34e54; stroke:none;" d="M212 44L213 45L212 44M402 44L403 45L402 44z"/>
<path style="fill:#b5a0a1; stroke:none;" d="M403 44L404 45L403 44z"/>
<path style="fill:#396b52; stroke:none;" d="M453 44L454 45L453 44z"/>
<path style="fill:#b5a0a1; stroke:none;" d="M206 45L207 46L206 45z"/>
<path style="fill:#c34e54; stroke:none;" d="M207 45L208 46L207 45M405 45C406.248 45.6848 406.548 45.7488 408 46C406.752 45.3152 406.452 45.2512 405 45z"/>
<path style="fill:#b5a0a1; stroke:none;" d="M408 45L409 46L408 45z"/>
<path style="fill:#396b52; stroke:none;" d="M148 46C149.248 46.6848 149.548 46.7488 151 47C149.752 46.3152 149.452 46.2512 148 46z"/>
<path style="fill:#c34e54; stroke:none;" d="M201 46L202 47L201 46M413 46L414 47L413 46z"/>
<path style="fill:#396b52; stroke:none;" d="M463 46C464.769 46.779 466.036 46.9124 468 47C466.231 46.2211 464.964 46.0876 463 46z"/>
<path style="fill:#b5a0a1; stroke:none;" d="M145 47L146 48L145 47M194 47L195 48L194 47M420 47L421 48L420 47M469 47L470 48L469 47z"/>
<path style="fill:#c34e54; stroke:none;" d="M277 49C281.132 50.2711 286.585 49.0005 291 49C286.615 47.1598 281.569 48.1518 277 49z"/>
<path style="fill:#221e1a; stroke:none;" d="M291 48.4244C276.686 50.3037 262.311 51.086 248 53.2963C224.79 56.8811 201.26 63.2536 179 70.6667C170.608 73.4612 162.243 76.289 154 79.4961C151.035 80.6498 145.908 81.6982 144.042 84.5092C141.633 88.1396 144 98.5518 144 103L144 153C144 240.521 172.993 325.658 230.718 392C246.663 410.325 265.404 425.624 285 439.848C290.433 443.792 300.916 453.492 308 452.958C314.312 452.481 321.958 445.456 327 441.975C343.384 430.662 358.919 418.081 373 404C420.872 356.128 451.432 293.162 464.195 227C467.599 209.357 468.478 191.78 470.17 174C472.242 152.223 471 129.89 471 108C471 102.701 470.678 97.2803 471.17 92C471.391 89.6208 472.388 86.6833 470.958 84.4992C468.921 81.3909 463.237 80.4529 460 79.142C449.6 74.9305 438.784 71.2464 428 68.1412C398.009 59.5057 368.088 52.8007 337 49.8302C321.944 48.3917 306.12 46.4391 291 48.4244z"/>
<path style="fill:#c34e54; stroke:none;" d="M323 48C326.959 49.6611 331.737 49 336 49C332.041 47.3389 327.263 48 323 48z"/>
<path style="fill:#b5a0a1; stroke:none;" d="M183 49L184 50L183 49z"/>
<path style="fill:#c34e54; stroke:none;" d="M184 49L185 50L184 49z"/>
<path style="fill:#b5a0a1; stroke:none;" d="M431 49L432 50L431 49M176 50L177 51L176 50z"/>
<path style="fill:#c34e54; stroke:none;" d="M263 50C264.769 50.7789 266.036 50.9124 268 51C266.231 50.2211 264.964 50.0876 263 50M346 50C348.052 50.8743 349.747 50.9528 352 51C349.948 50.1258 348.253 50.0472 346 50z"/>
<path style="fill:#b5a0a1; stroke:none;" d="M438 50L439 51L438 50M171 51L172 52L171 51z"/>
<path style="fill:#c34e54; stroke:none;" d="M256 51C257.506 51.683 258.315 51.8259 260 52C258.494 51.317 257.685 51.1741 256 51M353 51C354.769 51.779 356.036 51.9124 358 52C356.231 51.2211 354.964 51.0876 353 51z"/>
<path style="fill:#b5a0a1; stroke:none;" d="M443 51L444 52L443 51z"/>
<path style="fill:#c34e54; stroke:none;" d="M166 52L167 53L166 52M247 52C249.613 53.0977 252.165 52.9928 255 53C252.387 51.9023 249.835 52.0072 247 52M360 52C362.613 53.0977 365.164 52.9928 368 53C365.387 51.9023 362.836 52.0072 360 52M448 52L449 53L448 52M455 53L456 54L455 53z"/>
<path style="fill:#b5a0a1; stroke:none;" d="M153 54L154 55L153 54z"/>
<path style="fill:#c34e54; stroke:none;" d="M239 54C240.506 54.683 241.315 54.8259 243 55C241.494 54.317 240.685 54.1741 239 54M372 54C373.506 54.683 374.315 54.8259 376 55C374.494 54.317 373.685 54.1741 372 54z"/>
<path style="fill:#b5a0a1; stroke:none;" d="M461 54L462 55L461 54M148 55L149 56L148 55z"/>
<path style="fill:#c34e54; stroke:none;" d="M235 55C236.248 55.6848 236.548 55.7488 238 56C236.752 55.3152 236.452 55.2512 235 55z"/>
<path style="fill:#396b52; stroke:none;" d="M292 55C293.248 55.6848 293.548 55.7488 295 56C293.752 55.3152 293.452 55.2512 292 55z"/>
<path style="fill:#b5a0a1; stroke:none;" d="M295 55C296.248 55.6848 296.548 55.7488 298 56C296.752 55.3152 296.452 55.2512 295 55z"/>
<path style="fill:#fef305; stroke:none;" d="M298 55.4244C286.795 56.8956 275.285 56.077 264 57.1698C237.572 59.7289 211.201 64.9329 186 73.3333C177.476 76.1745 169.2 79.3403 161 83.0255C157.747 84.4875 152.988 86.1554 151.028 89.3395C148.269 93.8206 150 102.895 150 108C150 124.045 151 140.005 151 156C151 239.581 176.87 320.12 231.87 384C247.597 402.267 266.288 417.952 286 431.72C291.366 435.468 301.084 444.437 308.039 443.721C314.984 443.007 322.375 436.083 328 432.333C345.444 420.704 362.132 406.864 376.251 391.325C432.032 329.935 464 249.231 464 166C464 147.627 465 129.392 465 111C465 105.236 467.08 94.3656 463.972 89.3403C461.969 86.1012 457.255 84.9547 454 83.446C444.795 79.1799 435.644 75.4885 426 72.3303C393.645 61.7345 358.976 56.4004 325 55.9962C315.943 55.8884 307.107 54.2286 298 55.4244z"/>
<path style="fill:#b5a0a1; stroke:none;" d="M318 55C319.506 55.683 320.315 55.8259 322 56C320.494 55.317 319.685 55.1741 318 55z"/>
<path style="fill:#396b52; stroke:none;" d="M322.667 55.3333C322.222 55.7778 323.278 55.7222 323.333 55.6667C323.778 55.2223 322.722 55.2778 322.667 55.3333z"/>
<path style="fill:#b5a0a1; stroke:none;" d="M466 55L467 56L466 55z"/>
<path style="fill:#c34e54; stroke:none;" d="M229 56C230.248 56.6848 230.548 56.7488 232 57C230.752 56.3152 230.452 56.2512 229 56z"/>
<path style="fill:#b5a0a1; stroke:none;" d="M271.667 56.3333C271.222 56.7777 272.278 56.7222 272.333 56.6667C272.778 56.2222 271.722 56.2778 271.667 56.3333M342.667 56.3333C342.222 56.7778 343.278 56.7222 343.333 56.6667C343.778 56.2222 342.722 56.2778 342.667 56.3333z"/>
<path style="fill:#c34e54; stroke:none;" d="M383 56C384.248 56.6848 384.548 56.7488 386 57C384.752 56.3152 384.452 56.2512 383 56z"/>
<path style="fill:#396b52; stroke:none;" d="M261 57L262 58L261 57z"/>
<path style="fill:#b5a0a1; stroke:none;" d="M352 57L353 58L352 57z"/>
<path style="fill:#396b52; stroke:none;" d="M353 57L354 58L353 57z"/>
<path style="fill:#c34e54; stroke:none;" d="M221 58C222.248 58.6848 222.548 58.7488 224 59C222.752 58.3152 222.452 58.2512 221 58z"/>
<path style="fill:#396b52; stroke:none;" d="M253 58L254 59L253 58M361 58L362 59L361 58z"/>
<path style="fill:#c34e54; stroke:none;" d="M391 58C392.248 58.6848 392.548 58.7488 394 59C392.752 58.3152 392.452 58.2512 391 58z"/>
<path style="fill:#396b52; stroke:none;" d="M244 59L245 60L244 59M370 59L371 60L370 59z"/>
<path style="fill:#c34e54; stroke:none;" d="M212 60C213.248 60.6848 213.548 60.7488 215 61C213.752 60.3152 213.452 60.2512 212 60z"/>
<path style="fill:#396b52; stroke:none;" d="M238 60L239 61L238 60M376 60L377 61L376 60z"/>
<path style="fill:#c34e54; stroke:none;" d="M400 60C401.248 60.6848 401.548 60.7488 403 61C401.752 60.3152 401.452 60.2512 400 60z"/>
<path style="fill:#396b52; stroke:none;" d="M233 61L234 62L233 61M381 61L382 62L381 61z"/>
<path style="fill:#c34e54; stroke:none;" d="M205.667 62.3333C205.222 62.7779 206.278 62.7221 206.333 62.6667C206.778 62.2224 205.722 62.2777 205.667 62.3333z"/>
<path style="fill:#396b52; stroke:none;" d="M226 62L227 63L226 62z"/>
<path style="fill:#b5a0a1; stroke:none;" d="M227 62L228 63L227 62M387 62L388 63L387 62z"/>
<path style="fill:#396b52; stroke:none;" d="M222 63L223 64L222 63z"/>
<path style="fill:#ffffff; stroke:none;" d="M390.667 63.3333C390.222 63.7777 391.278 63.7222 391.333 63.6667C391.778 63.2222 390.722 63.2779 390.667 63.3333z"/>
<path style="fill:#396b52; stroke:none;" d="M392 63L393 64L392 63z"/>
<path style="fill:#c34e54; stroke:none;" d="M196 64C197.769 64.7789 199.036 64.9124 201 65C199.231 64.2211 197.964 64.0876 196 64z"/>
<path style="fill:#b5a0a1; stroke:none;" d="M218 64L219 65L218 64M396 64L397 65L396 64z"/>
<path style="fill:#c34e54; stroke:none;" d="M414 64C415.248 64.6848 415.548 64.7488 417 65C415.752 64.3152 415.452 64.2512 414 64M194.667 65.3333C194.222 65.7779 195.278 65.7221 195.333 65.6667C195.778 65.2224 194.722 65.2777 194.667 65.3333z"/>
<path style="fill:#b5a0a1; stroke:none;" d="M213 65L214 66L213 65M401 65L402 66L401 65z"/>
<path style="fill:#c34e54; stroke:none;" d="M190 66C191.248 66.6848 191.548 66.7488 193 67C191.752 66.3152 191.452 66.2512 190 66z"/>
<path style="fill:#b5a0a1; stroke:none;" d="M209 66L210 67L209 66M405 66L406 67L405 66z"/>
<path style="fill:#c34e54; stroke:none;" d="M422 66C423.248 66.6848 423.549 66.7488 425 67C423.752 66.3152 423.452 66.2512 422 66M184.667 68.3333C184.222 68.7778 185.278 68.7222 185.333 68.6667C185.778 68.2224 184.722 68.2777 184.667 68.3333z"/>
<path style="fill:#b5a0a1; stroke:none;" d="M201 68L202 69L201 68z"/>
<path style="fill:#221e1a; stroke:none;" d="M312 68C310.966 71.487 310.708 74.3799 311 78C304.127 77.3961 299.062 74.6936 292 76C293.769 76.7789 295.036 76.9124 297 77C294.059 78.0694 291.062 78.3309 288 79C292.857 81.0961 297.223 80.6755 301 85C293.839 86.1327 287.784 91.1263 281 93.6759C277.389 95.033 273.263 94.8726 270.185 97.4337C267.648 99.5449 261.877 108.134 267.318 110.307C270.087 111.413 274.277 109.705 277 109C274.874 110.882 272.592 111.819 270 113C274.82 117.455 278.433 113.295 284 113.198C288.075 113.128 292.002 115.097 296 115.701C298.218 116.036 301.635 115.637 303.211 117.603C305.784 120.812 300.739 128.989 299.18 132C296.372 137.423 292.165 141.548 288.093 146C281.258 153.471 275.625 159.878 266 164.016C262.047 165.716 259.059 162.852 256 160.64C250.549 156.697 244.157 149.185 237 149.152C229.951 149.119 226.507 156.791 223.404 162C217.151 172.494 210.251 183.39 206.62 195C204.891 200.529 202.854 205.122 204 211C208.023 209.899 212.885 208.515 215.393 204.892C217.655 201.623 215.7 198.25 216.438 194.715C217.85 187.952 221.25 183.205 225.565 178C227.696 175.429 231.983 167.034 235.947 167.631C238.462 168.01 240.083 171.229 241.514 173.001C244.717 176.967 248.682 180.164 252 184C248.791 182.309 245.516 181.083 242 180.156C238.808 179.314 235.31 178.498 232 178.38C217.297 177.857 220.826 195.099 222.385 204C223.546 210.629 223.411 217.486 225.39 224C226.972 229.207 230.581 235.355 233.468 239.999C234.902 242.305 237.508 246.555 240.776 246.079C246.147 245.297 245.443 233.701 243.062 230.633C241.552 228.688 239.1 227.761 237.588 225.787C235.4 222.931 234.609 218.379 233.439 215C231.11 208.272 231.948 200.931 230 194C237.932 194.106 247.578 201.937 253.424 206.999C257.179 210.25 262.253 211.62 265.674 215.144C269.051 218.623 271.286 223.2 274.286 227C278.948 232.904 284.271 237.735 290 242.576C297.788 249.155 310.192 254.924 315 264C308.586 259.614 303.231 254.121 296 251C293.187 262.822 298.631 274.535 303.637 285C305.398 288.681 311.456 295.605 308.353 299.682C305.782 303.059 299.681 302 296 302C284.823 302 274.147 301.171 263 302.086C259.342 302.386 249.654 303.358 248.921 308.158C248.244 312.6 257.81 314.994 260.961 314.758C264.531 314.492 266.519 311.093 270.015 310.599C282.091 308.893 293.044 309.746 305 312.425C308.802 313.277 316.108 316.96 318.972 312.681C322.871 306.858 315.554 296.322 315.09 290C314.304 279.289 317.834 271.256 322.68 262C324.477 258.568 325.43 254.913 328 252C326.912 264.464 316.288 273.805 317.326 287C317.945 294.874 320.455 303.03 324.12 310C325.915 313.413 330.027 317.871 328.607 322C326.926 326.888 320.929 330.961 317.09 334.101C311.584 338.604 306.95 343.549 301.791 348.335C297.422 352.387 292.994 355.135 291 361C296.193 363.191 304.702 364.551 309.668 360.86C311.894 359.206 311.425 356.402 312.75 354.208C316.02 348.795 321.544 342.899 326.17 338.59C330.345 334.701 341.066 330.354 342.682 324.79C345.073 316.56 335.892 310.167 341.009 302.043C344.573 296.386 352.106 293.294 356.985 288.826C364.643 281.814 368.071 273.949 370 264L372 264C373.31 271.16 371.02 277.795 371 285C374.278 281.015 374.166 275.646 378 272C377.99 275.806 377.911 279.394 376.532 283C374.203 289.088 370.054 293.209 372 300C377.096 292.099 384.902 282.94 384.816 273C384.786 269.473 383.243 266.229 382 263C388.223 268.79 386.246 276.838 390 284C392.286 276.573 391.382 267.323 389 260C392.128 259.144 395.285 258.151 397.996 256.301C407.987 249.483 409.949 237.201 408.829 226C408.353 221.235 406.787 216.84 407.432 212C408.613 203.142 414.918 197.141 415 188C410.146 192.997 408.791 199.766 402 203C400.114 191.367 411.362 184.084 413 173C406.285 176.683 402.543 185.355 396 190C396.099 178.157 402.59 172.135 409 163C405.303 164.402 402.074 166.4 399.184 169.145C393.049 174.973 389.02 183.411 389.259 192C389.728 208.782 401.165 227.333 389.442 242.996C386.376 247.092 378.105 254.939 372.225 253.211C369.224 252.33 368.695 248.5 367.767 246C366.005 241.258 363.075 236.871 359.854 233C348.136 218.915 329.293 210.914 323.785 192C322.547 187.747 322.903 183.364 323 179C330.857 182.077 337.528 186.283 345 190C342.698 185.488 339.764 181.89 335 180C338.875 179.623 341.463 181.546 345 183C342.413 177.906 337.55 175.005 332 174C340.384 171.906 351.645 183.58 358 174C350.082 176.863 348.382 173.186 341.83 169.556C338.222 167.557 333.9 166.32 330 165C337.042 164.782 345.279 165.786 352 168C348.12 162.825 344.392 161.058 338 161C344.431 158.239 349.37 163.804 356 162C350.684 158.31 343.582 156.432 339 152L347 155L342 149L357 157C352.679 149.249 345.887 143.085 338 139C346.277 137.276 352.492 144.924 361 145C354.014 138.602 345.896 132.557 340 125C346.959 127.897 354.52 133.171 362 134C356.974 126.458 348.131 118.369 339 117C346.582 114.703 354.038 121.946 362 120C355.917 116.323 350.216 114.09 345 109C351.465 112.556 358.397 111.681 365 115C362.137 109.273 357.333 109.618 352.039 107.302C347.888 105.485 342.993 101.345 340 98C348.489 100.761 357.356 102.047 366 104C359.975 96.6234 348.367 94.2747 340 90C344.29 88.6429 347.55 88.2113 352 89C348.816 83.2257 343.295 86.2125 338 84.2616C328.272 80.6776 320.139 74.2246 312 68z"/>
<path style="fill:#ffffff; stroke:none;" d="M313 68L314 69L313 68z"/>
<path style="fill:#b5a0a1; stroke:none;" d="M413 68L414 69L413 68z"/>
<path style="fill:#c34e54; stroke:none;" d="M429.667 68.3333C429.222 68.7777 430.278 68.7223 430.333 68.6667C430.778 68.2222 429.722 68.2778 429.667 68.3333z"/>
<path style="fill:#b5a0a1; stroke:none;" d="M303 69L304 70L303 69z"/>
<path style="fill:#221e1a; stroke:none;" d="M304 69C303.11 70.7447 302.547 72.125 302 74L308 77L309 76C307.704 73.0576 306.441 71.0863 304 69z"/>
<path style="fill:#396b52; stroke:none;" d="M311 69L312 70L311 69z"/>
<path style="fill:#b5a0a1; stroke:none;" d="M314 70L315 71L314 70M191 71L192 72L191 71M423 71L424 72L423 71z"/>
<path style="fill:#c34e54; stroke:none;" d="M172.667 72.3333C172.222 72.7778 173.278 72.7222 173.333 72.6667C173.778 72.2224 172.722 72.2777 172.667 72.3333z"/>
<path style="fill:#b5a0a1; stroke:none;" d="M188 72L189 73L188 72z"/>
<path style="fill:#ffffff; stroke:none;" d="M307 72L308 73L307 72z"/>
<path style="fill:#b5a0a1; stroke:none;" d="M310 72L311 73L310 72z"/>
<path style="fill:#396b52; stroke:none;" d="M426 72L427 73L426 72z"/>
<path style="fill:#c34e54; stroke:none;" d="M441.667 72.3333C441.222 72.7777 442.278 72.7222 442.333 72.6667C442.778 72.2222 441.722 72.2778 441.667 72.3333z"/>
<path style="fill:#396b52; stroke:none;" d="M318 73L319 74L318 73M429 73L430 74L429 73z"/>
<path style="fill:#c34e54; stroke:none;" d="M166.667 74.3333C166.222 74.7779 167.278 74.7221 167.333 74.6667C167.778 74.2224 166.722 74.2777 166.667 74.3333z"/>
<path style="fill:#b5a0a1; stroke:none;" d="M182 74L183 75L182 74M308 74L309 75L308 74M310 74L311 75L310 74z"/>
<path style="fill:#c34e54; stroke:none;" d="M447.667 74.3333C447.222 74.7777 448.278 74.7222 448.333 74.6667C448.778 74.2222 447.722 74.2778 447.667 74.3333M163.667 75.3333C163.222 75.7779 164.278 75.7221 164.333 75.6667C164.778 75.2224 163.722 75.2777 163.667 75.3333z"/>
<path style="fill:#396b52; stroke:none;" d="M294 75L295 76L294 75M304 75L305 76L304 75z"/>
<path style="fill:#ffffff; stroke:none;" d="M434 75L435 76L434 75z"/>
<path style="fill:#c34e54; stroke:none;" d="M160 76C161.248 76.6848 161.548 76.7488 163 77C161.752 76.3152 161.452 76.2512 160 76z"/>
<path style="fill:#ffffff; stroke:none;" d="M303 76C304.693 77.0624 306.04 77.5196 308 78C306.211 76.5785 305.294 76.3026 303 76z"/>
<path style="fill:#396b52; stroke:none;" d="M308 76L309 77L308 76M321 76L322 77L321 76z"/>
<path style="fill:#c34e54; stroke:none;" d="M452.667 76.3333C452.222 76.7776 453.278 76.7223 453.333 76.6667C453.778 76.2222 452.722 76.2779 452.667 76.3333z"/>
<path style="fill:#ffffff; stroke:none;" d="M292 77C293.506 77.683 294.315 77.8259 296 78C294.494 77.317 293.685 77.1741 292 77z"/>
<path style="fill:#396b52; stroke:none;" d="M296 77L297 78L296 77z"/>
<path style="fill:#b5a0a1; stroke:none;" d="M322 77L323 78L322 77M289 78L290 79L289 78z"/>
<path style="fill:#396b52; stroke:none;" d="M293 78L294 79L293 78z"/>
<path style="fill:#b5a0a1; stroke:none;" d="M294 78L295 79L294 78M328 78L329 79L328 78z"/>
<path style="fill:#c34e54; stroke:none;" d="M458.667 78.3333C458.222 78.7777 459.278 78.7223 459.333 78.6667C459.778 78.2222 458.722 78.2779 458.667 78.3333z"/>
<path style="fill:#396b52; stroke:none;" d="M169 79L170 80L169 79z"/>
<path style="fill:#b5a0a1; stroke:none;" d="M287 79L288 80L287 79z"/>
<path style="fill:#ffffff; stroke:none;" d="M444 79L445 80L444 79z"/>
<path style="fill:#396b52; stroke:none;" d="M445 79L446 80L445 79M294 80L295 81L294 80z"/>
<path style="fill:#ffffff; stroke:none;" d="M332 80L333 81L332 80z"/>
<path style="fill:#c34e54; stroke:none;" d="M463.667 80.3333C463.222 80.7777 464.278 80.7222 464.333 80.6667C464.778 80.2223 463.722 80.2778 463.667 80.3333z"/>
<path style="fill:#ffffff; stroke:none;" d="M295.667 81.3333C295.222 81.7777 296.278 81.7222 296.333 81.6667C296.778 81.2222 295.722 81.2778 295.667 81.3333z"/>
<path style="fill:#396b52; stroke:none;" d="M297 81L298 82L297 81z"/>
<path style="fill:#ffffff; stroke:none;" d="M333 81L334 82L333 81M449 81L450 82L449 81z"/>
<path style="fill:#c34e54; stroke:none;" d="M144 82C145.248 82.6848 145.548 82.7488 147 83C145.752 82.3152 145.452 82.2512 144 82z"/>
<path style="fill:#396b52; stroke:none;" d="M162 82L163 83L162 82z"/>
<path style="fill:#ffffff; stroke:none;" d="M325 82C326.543 83.2667 327.048 83.4893 329 84C327.457 82.7333 326.952 82.5107 325 82z"/>
<path style="fill:#396b52; stroke:none;" d="M452 82L453 83L452 82z"/>
<path style="fill:#c34e54; stroke:none;" d="M468 82C469.248 82.6848 469.548 82.7488 471 83C469.752 82.3152 469.452 82.2512 468 82z"/>
<path style="fill:#ffffff; stroke:none;" d="M300.333 83.6667C300.278 83.7222 300.222 84.7778 300.667 84.3333C300.722 84.2778 300.778 83.2222 300.333 83.6667M453.667 83.3333C453.222 83.7777 454.278 83.7223 454.333 83.6667C454.778 83.2222 453.722 83.2778 453.667 83.3333z"/>
<path style="fill:#396b52; stroke:none;" d="M337 84L338 85L337 84z"/>
<path style="fill:#b5a0a1; stroke:none;" d="M338 84C341.163 85.3274 344.586 84.9996 348 85C344.837 83.6726 341.414 84.0004 338 84M456 84L457 85L456 84M156 85L157 86L156 85M458 85L459 86L458 85z"/>
<path style="fill:#396b52; stroke:none;" d="M351 86L352 87L351 86M152 87L153 88L152 87M462 87L463 88L462 87z"/>
<path style="fill:#b5a0a1; stroke:none;" d="M292 88L293 89L292 88z"/>
<path style="fill:#396b52; stroke:none;" d="M329 88L330 89L329 88M344 88L345 89L344 88M143 89L143 94C143.83 91.9695 143.83 91.0305 143 89z"/>
<path style="fill:#b5a0a1; stroke:none;" d="M149 89L150 90L149 89M306 89L307 90L306 89z"/>
<path style="fill:#ffffff; stroke:none;" d="M307.667 89.3333C307.222 89.7777 308.278 89.7223 308.333 89.6667C308.778 89.2223 307.722 89.2778 307.667 89.3333M328 89C329.458 90.0811 330.248 90.4361 332 91C330.686 89.3821 330.123 89.3067 328 89z"/>
<path style="fill:#396b52; stroke:none;" d="M465 89L465 94C465.83 91.9695 465.83 91.0305 465 89M471 89L471 94C471.83 91.9695 471.83 91.0305 471 89M149 90L149 94C149.71 92.2405 149.71 91.7595 149 90z"/>
<path style="fill:#ffffff; stroke:none;" d="M295 90C291.213 92.8794 287.642 94.8871 283 96C287.116 97.2493 295.116 95.0856 295 90M309.333 90.6667C309.278 90.7223 309.222 91.7777 309.667 91.3333C309.722 91.2778 309.778 90.2222 309.333 90.6667M301 94L309 96C307.333 91.4713 304.5 90.4702 301 94z"/>
<path style="fill:#b5a0a1; stroke:none;" d="M283 92L284 93L283 92z"/>
<path style="fill:#396b52; stroke:none;" d="M301 92L302 93L301 92z"/>
<path style="fill:#b5a0a1; stroke:none;" d="M281 93L282 94L281 93M143 94L143 102C144.161 99.2302 144.161 96.7698 143 94z"/>
<path style="fill:#396b52; stroke:none;" d="M279 94L280 95L279 94z"/>
<path style="fill:#b5a0a1; stroke:none;" d="M292 94L293 95L292 94M471 94L471 101C472.059 98.4657 472.059 96.5343 471 94M285 95L286 96L285 95M306 95L307 96L306 95z"/>
<path style="fill:#396b52; stroke:none;" d="M350 95L351 96L350 95M286 96L287 97L286 96z"/>
<path style="fill:#b5a0a1; stroke:none;" d="M307 96L308 97L307 96z"/>
<path style="fill:#ffffff; stroke:none;" d="M329 96L329 99L337 98C334.439 96.7678 331.822 96.3651 329 96z"/>
<path style="fill:#b5a0a1; stroke:none;" d="M332 96C333.248 96.6848 333.548 96.7488 335 97C333.752 96.3152 333.452 96.2512 332 96M352 96L353 97L352 96z"/>
<path style="fill:#396b52; stroke:none;" d="M357 97L358 98L357 97z"/>
<path style="fill:#ffffff; stroke:none;" d="M340.333 98.6667C340.278 98.7223 340.222 99.7777 340.667 99.3333C340.722 99.2779 340.778 98.2222 340.333 98.6667z"/>
<path style="fill:#b5a0a1; stroke:none;" d="M341 98L342 99L341 98M329 99L330 100L329 99M344 99L345 100L344 99M347 100L348 101L347 100z"/>
<path style="fill:#ffffff; stroke:none;" d="M362 100L363 101L362 100M269 102L268 107L273 104C271.457 102.733 270.952 102.511 269 102z"/>
<path style="fill:#396b52; stroke:none;" d="M345 102L346 103L345 102z"/>
<path style="fill:#b5a0a1; stroke:none;" d="M361 102L362 103L361 102z"/>
<path style="fill:#ffffff; stroke:none;" d="M365 102L366 103L365 102z"/>
<path style="fill:#396b52; stroke:none;" d="M333 103L334 104L333 103M310 104L311 105L310 104z"/>
<path style="fill:#ffffff; stroke:none;" d="M332 104C333.377 104.911 334.44 105.404 336 106C334.457 104.733 333.952 104.511 332 104z"/>
<path style="fill:#396b52; stroke:none;" d="M335 104L336 105L335 104z"/>
<path style="fill:#ffffff; stroke:none;" d="M309 105L310 106L309 105z"/>
<path style="fill:#396b52; stroke:none;" d="M334 105L335 106L334 105z"/>
<path style="fill:#b5a0a1; stroke:none;" d="M348 105L349 106L348 105M307 106L308 107L307 106z"/>
<path style="fill:#ffffff; stroke:none;" d="M308 106L309 107L308 106M281 107L281 109L283 109L283 107L281 107M301 110C304.343 111.159 306.156 109.84 308 107L301 110z"/>
<path style="fill:#396b52; stroke:none;" d="M356 108L357 109L356 108z"/>
<path style="fill:#ffffff; stroke:none;" d="M275 109L275 111L277 111L277 109L275 109M315 109L311 112C313.431 112.365 314.825 111.522 315 109M332 109C333.543 110.267 334.048 110.489 336 111C334.457 109.733 333.952 109.511 332 109M345 109C346.33 110.753 347.247 111.67 349 113C347.845 110.867 347.118 110.218 345 109z"/>
<path style="fill:#b5a0a1; stroke:none;" d="M346 109L347 110L346 109M270 110L271 111L270 110M305 110L306 111L305 110M315 110L316 111L315 110z"/>
<path style="fill:#396b52; stroke:none;" d="M335.667 111.333C335.222 111.778 336.278 111.722 336.333 111.667C336.778 111.222 335.722 111.278 335.667 111.333z"/>
<path style="fill:#b5a0a1; stroke:none;" d="M317 112L318 113L317 112z"/>
<path style="fill:#396b52; stroke:none;" d="M352 112C353.248 112.685 353.548 112.749 355 113C353.752 112.315 353.452 112.251 352 112z"/>
<path style="fill:#b5a0a1; stroke:none;" d="M280 113L281 114L280 113M286 113L287 114L286 113z"/>
<path style="fill:#396b52; stroke:none;" d="M287 113L288 114L287 113z"/>
<path style="fill:#b5a0a1; stroke:none;" d="M314 113L315 114L314 113z"/>
<path style="fill:#ffffff; stroke:none;" d="M311 114C313.529 115.039 315.176 115.093 317 113L311 114z"/>
<path style="fill:#396b52; stroke:none;" d="M332 114L333 115L332 114z"/>
<path style="fill:#ffffff; stroke:none;" d="M332 115C333.693 116.062 335.04 116.52 337 117C335.107 115.089 334.667 114.862 332 115z"/>
<path style="fill:#396b52; stroke:none;" d="M335 114L336 115L335 114M272 115L273 116L272 115z"/>
<path style="fill:#b5a0a1; stroke:none;" d="M294 115L295 116L294 115M342 115L343 116L342 115M352 115L353 116L352 115z"/>
<path style="fill:#396b52; stroke:none;" d="M339 116L340 117L339 116M355 116L356 117L355 116z"/>
<path style="fill:#ffffff; stroke:none;" d="M304.333 117.667C304.278 117.722 304.222 118.778 304.667 118.333C304.722 118.278 304.778 117.222 304.333 117.667z"/>
<path style="fill:#b5a0a1; stroke:none;" d="M358 118L359 119L358 118M304 119L305 120L304 119z"/>
<path style="fill:#396b52; stroke:none;" d="M354 119L355 120L354 119z"/>
<path style="fill:#b5a0a1; stroke:none;" d="M361 120L362 121L361 120z"/>
<path style="fill:#ffffff; stroke:none;" d="M332 121C333.653 122.513 334.894 123.181 337 124C335.554 121.717 334.689 121.418 332 121z"/>
<path style="fill:#396b52; stroke:none;" d="M335 123L336 124L335 123z"/>
<path style="fill:#b5a0a1; stroke:none;" d="M351 123L352 124L351 123z"/>
<path style="fill:#ffffff; stroke:none;" d="M302 124L303 125L302 124z"/>
<path style="fill:#396b52; stroke:none;" d="M340.667 125.333C340.222 125.778 341.278 125.722 341.333 125.667C341.778 125.222 340.722 125.278 340.667 125.333z"/>
<path style="fill:#ffffff; stroke:none;" d="M341 126L341 128C342.635 127.455 342.455 127.635 343 126L341 126z"/>
<path style="fill:#396b52; stroke:none;" d="M343 126L344 127L343 126z"/>
<path style="fill:#ffffff; stroke:none;" d="M314 127C311.232 135.182 305.653 141.986 303 150C309.204 145.252 317.408 135.356 314 127M332 127C333.446 129.283 334.31 129.582 337 130C335.283 128.16 334.434 127.651 332 127z"/>
<path style="fill:#b5a0a1; stroke:none;" d="M345 127L346 128L345 127M336 128L337 129L336 128M336 130L337 131L336 130z"/>
<path style="fill:#396b52; stroke:none;" d="M337 130L338 131L337 130M353 130L354 131L353 130z"/>
<path style="fill:#b5a0a1; stroke:none;" d="M299 131L300 132L299 131M312 131L313 132L312 131M346 131L347 132L346 131M355 131L356 132L355 131z"/>
<path style="fill:#396b52; stroke:none;" d="M359 131L360 132L359 131M298 133L299 134L298 133M314 133L315 134L314 133M332.667 133.333C332.222 133.778 333.278 133.722 333.333 133.667C333.778 133.222 332.722 133.278 332.667 133.333z"/>
<path style="fill:#b5a0a1; stroke:none;" d="M357 133L358 134L357 133z"/>
<path style="fill:#ffffff; stroke:none;" d="M331 134C332.75 135.255 333.857 135.614 336 136C334.211 134.578 333.294 134.303 331 134M350 134L351 135L350 134z"/>
<path style="fill:#b5a0a1; stroke:none;" d="M297 135L298 136L297 135M332 135L333 136L332 135M335 136L336 137L335 136z"/>
<path style="fill:#396b52; stroke:none;" d="M309 138L310 139L309 138z"/>
<path style="fill:#b5a0a1; stroke:none;" d="M342 138L343 139L342 138M352 138L353 139L352 138z"/>
<path style="fill:#ffffff; stroke:none;" d="M294 139L295 140L294 139M332 139C332.902 140.923 333.076 140.999 335 142C334.098 140.077 333.924 140.001 332 139z"/>
<path style="fill:#b5a0a1; stroke:none;" d="M333 139L334 140L333 139z"/>
<path style="fill:#396b52; stroke:none;" d="M331 140L332 141L331 140z"/>
<path style="fill:#b5a0a1; stroke:none;" d="M348 140L349 141L348 140M150 141L150 146C150.83 143.97 150.83 143.03 150 141z"/>
<path style="fill:#396b52; stroke:none;" d="M342 141L343 142L342 141z"/>
<path style="fill:#b5a0a1; stroke:none;" d="M349 141L350 142L349 141M357 142L358 143L357 142M464 142L464 146C464.71 144.24 464.71 143.759 464 142M306 143L307 144L306 143z"/>
<path style="fill:#ffffff; stroke:none;" d="M351 143L352 144L351 143M345 144L346 145L345 144z"/>
<path style="fill:#b5a0a1; stroke:none;" d="M353 144L354 145L353 144z"/>
<path style="fill:#396b52; stroke:none;" d="M307 145L308 146L307 145z"/>
<path style="fill:#b5a0a1; stroke:none;" d="M330 145L331 146L330 145z"/>
<path style="fill:#ffffff; stroke:none;" d="M331 145C332.139 146.015 332.612 146.309 334 147C332.777 145.805 332.58 145.684 331 145M354.667 145.333C354.222 145.778 355.278 145.722 355.333 145.667C355.778 145.222 354.722 145.278 354.667 145.333z"/>
<path style="fill:#b5a0a1; stroke:none;" d="M356.667 145.333C356.222 145.778 357.278 145.722 357.333 145.667C357.778 145.222 356.722 145.278 356.667 145.333z"/>
<path style="fill:#396b52; stroke:none;" d="M150 146L150 149C150.696 147.446 150.696 147.554 150 146M332 146L333 147L332 146M464 146L464 149C464.696 147.446 464.696 147.554 464 146z"/>
<path style="fill:#b5a0a1; stroke:none;" d="M232 149L233 150L232 149z"/>
<path style="fill:#396b52; stroke:none;" d="M240 149L241 150L240 149z"/>
<path style="fill:#ffffff; stroke:none;" d="M342 149L343 150L342 149z"/>
<path style="fill:#b5a0a1; stroke:none;" d="M343 149L344 150L343 149M231 150L232 151L231 150z"/>
<path style="fill:#396b52; stroke:none;" d="M284 150L285 151L284 150z"/>
<path style="fill:#ffffff; stroke:none;" d="M329 150C330.248 150.685 330.548 150.749 332 151C330.752 150.315 330.452 150.251 329 150z"/>
<path style="fill:#396b52; stroke:none;" d="M230 151L231 152L230 151M331.667 151.333C331.222 151.778 332.278 151.722 332.333 151.667C332.778 151.222 331.722 151.278 331.667 151.333M343 151L344 152L343 151z"/>
<path style="fill:#b5a0a1; stroke:none;" d="M353 151L354 152L353 151M237 152L238 153L237 152z"/>
<path style="fill:#396b52; stroke:none;" d="M245 152L246 153L245 152z"/>
<path style="fill:#ffffff; stroke:none;" d="M339.667 152.333C339.222 152.778 340.278 152.722 340.333 152.667C340.778 152.222 339.722 152.278 339.667 152.333M235 153C236.506 153.683 237.315 153.826 239 154C237.494 153.317 236.685 153.174 235 153z"/>
<path style="fill:#b5a0a1; stroke:none;" d="M282 153L283 154L282 153M339 153L340 154L339 153z"/>
<path style="fill:#fef305; stroke:none;" d="M340.667 153.333C340.222 153.778 341.278 153.722 341.333 153.667C341.778 153.222 340.722 153.278 340.667 153.333z"/>
<path style="fill:#ffffff; stroke:none;" d="M341 154C343.013 155.225 344.659 155.645 347 156L343 153L341 154z"/>
<path style="fill:#396b52; stroke:none;" d="M346 153L347 154L346 153z"/>
<path style="fill:#ffffff; stroke:none;" d="M350.667 153.333C350.222 153.778 351.278 153.722 351.333 153.667C351.778 153.222 350.722 153.278 350.667 153.333z"/>
<path style="fill:#b5a0a1; stroke:none;" d="M228 154L229 155L228 154z"/>
<path style="fill:#396b52; stroke:none;" d="M235 154L236 155L235 154z"/>
<path style="fill:#ffffff; stroke:none;" d="M328 154C329.248 154.685 329.548 154.749 331 155C329.752 154.315 329.452 154.251 328 154z"/>
<path style="fill:#b5a0a1; stroke:none;" d="M344 154L345 155L344 154M355 154L356 155L355 154M280 155L281 156L280 155M330 155L331 156L330 155z"/>
<path style="fill:#396b52; stroke:none;" d="M331 155L332 156L331 155z"/>
<path style="fill:#b5a0a1; stroke:none;" d="M356 155L357 156L356 155M249 156L250 157L249 156z"/>
<path style="fill:#ffffff; stroke:none;" d="M347 156L348 157L347 156z"/>
<path style="fill:#396b52; stroke:none;" d="M278 157L279 158L278 157M348 157L349 158L348 157M275 158L276 159L275 158z"/>
<path style="fill:#b5a0a1; stroke:none;" d="M273 159L274 160L273 159z"/>
<path style="fill:#ffffff; stroke:none;" d="M327.667 159.333C327.222 159.778 328.278 159.722 328.333 159.667C328.778 159.222 327.722 159.278 327.667 159.333M339 160C341.535 161.139 344.256 161.482 347 162C344.296 159.857 342.378 159.344 339 160z"/>
<path style="fill:#b5a0a1; stroke:none;" d="M343 159L344 160L343 159M224 160L225 161L224 160M270.667 160.333C270.222 160.778 271.278 160.722 271.333 160.667C271.778 160.222 270.722 160.278 270.667 160.333M287 160L288 161L287 160z"/>
<path style="fill:#ffffff; stroke:none;" d="M282 164C288.145 162.859 293.038 163.11 299 165C295.705 159.34 285.875 158.446 282 164z"/>
<path style="fill:#b5a0a1; stroke:none;" d="M292 160L293 161L292 160z"/>
<path style="fill:#396b52; stroke:none;" d="M293 160L294 161L293 160z"/>
<path style="fill:#b5a0a1; stroke:none;" d="M338 160L339 161L338 160M345 160L346 161L345 160M227 161L228 162L227 161M283 161L284 162L283 161z"/>
<path style="fill:#396b52; stroke:none;" d="M296 161L297 162L296 161M347 161L348 162L347 161z"/>
<path style="fill:#ffffff; stroke:none;" d="M226 162L221 172C224.491 169.267 226.477 166.152 228 162L226 162z"/>
<path style="fill:#b5a0a1; stroke:none;" d="M258 162L259 163L258 162M268 162L269 163L268 162z"/>
<path style="fill:#396b52; stroke:none;" d="M355 162L356 163L355 162M259 163L260 164L259 163z"/>
<path style="fill:#b5a0a1; stroke:none;" d="M267 163L268 164L267 163z"/>
<path style="fill:#396b52; stroke:none;" d="M284 163L285 164L284 163z"/>
<path style="fill:#ffffff; stroke:none;" d="M326 163L327 164L326 163z"/>
<path style="fill:#b5a0a1; stroke:none;" d="M347 163L348 164L347 163z"/>
<path style="fill:#396b52; stroke:none;" d="M261 164L262 165L261 164M299 164L300 165L299 164M327 164L328 165L327 164z"/>
<path style="fill:#b5a0a1; stroke:none;" d="M330 164L331 165L330 164z"/>
<path style="fill:#ffffff; stroke:none;" d="M331 164C332.98 165.884 334.31 166.469 337 167C335.079 165.545 333.289 164.797 331 164z"/>
<path style="fill:#396b52; stroke:none;" d="M332 164L333 165L332 164M405 164L406 165L405 164z"/>
<path style="fill:#b5a0a1; stroke:none;" d="M221 165L222 166L221 165z"/>
<path style="fill:#396b52; stroke:none;" d="M226 165L227 166L226 165M262 165L263 166L262 165M331 165L332 166L331 165z"/>
<path style="fill:#b5a0a1; stroke:none;" d="M344 165L345 166L344 165z"/>
<path style="fill:#396b52; stroke:none;" d="M345 165L346 166L345 165z"/>
<path style="fill:#ffffff; stroke:none;" d="M407 165L408 166L407 165z"/>
<path style="fill:#396b52; stroke:none;" d="M223 166L224 167L223 166z"/>
<path style="fill:#ffffff; stroke:none;" d="M234 166L235 167L234 166z"/>
<path style="fill:#b5a0a1; stroke:none;" d="M235.667 166.333C235.222 166.778 236.278 166.722 236.333 166.667C236.778 166.222 235.722 166.278 235.667 166.333z"/>
<path style="fill:#ffffff; stroke:none;" d="M402 166L403 167L402 166z"/>
<path style="fill:#b5a0a1; stroke:none;" d="M406 166L407 167L406 166z"/>
<path style="fill:#fef305; stroke:none;" d="M224 180C233.708 177.438 240.48 181.051 250 182C247.103 178.167 243.582 174.824 240.555 171.058C239.153 169.314 237.6 167.182 235.061 167.466C230.826 167.94 226.087 176.625 224 180z"/>
<path style="fill:#ffffff; stroke:none;" d="M243 167C244.174 169.966 245.204 171.465 248 173C246.617 170.363 245.348 168.83 243 167M324 167C324.545 168.635 324.365 168.455 326 169C325.455 167.365 325.635 167.545 324 167z"/>
<path style="fill:#b5a0a1; stroke:none;" d="M336 167L337 168L336 167M350 167L351 168L350 167z"/>
<path style="fill:#ffffff; stroke:none;" d="M405 167L406 168L405 167z"/>
<path style="fill:#396b52; stroke:none;" d="M222 168L223 169L222 168M324 168L325 169L324 168z"/>
<path style="fill:#b5a0a1; stroke:none;" d="M339 168L340 169L339 168z"/>
<path style="fill:#396b52; stroke:none;" d="M219 169L220 170L219 169M403 169L404 170L403 169M221 170L222 171L221 170z"/>
<path style="fill:#b5a0a1; stroke:none;" d="M244 170L245 171L244 170M402 170L403 171L402 170z"/>
<path style="fill:#396b52; stroke:none;" d="M144 171L144 174C144.696 172.446 144.696 172.554 144 171z"/>
<path style="fill:#b5a0a1; stroke:none;" d="M230 171L231 172L230 171z"/>
<path style="fill:#ffffff; stroke:none;" d="M240 171L241 172L240 171z"/>
<path style="fill:#396b52; stroke:none;" d="M470 171L470 174C470.696 172.446 470.696 172.554 470 171z"/>
<path style="fill:#ffffff; stroke:none;" d="M264 172C261.693 174.585 260.106 176.719 259 180C261.657 177.829 264.181 175.56 264 172M330.667 172.333C330.222 172.778 331.278 172.722 331.333 172.667C331.778 172.222 330.722 172.278 330.667 172.333M345 172L346 173L345 172z"/>
<path style="fill:#396b52; stroke:none;" d="M396 172L397 173L396 172z"/>
<path style="fill:#b5a0a1; stroke:none;" d="M262 173L263 174L262 173z"/>
<path style="fill:#ffffff; stroke:none;" d="M332 173C333.693 174.062 335.04 174.52 337 175C335.46 173.197 334.402 173.168 332 173z"/>
<path style="fill:#396b52; stroke:none;" d="M337 173L338 174L337 173z"/>
<path style="fill:#b5a0a1; stroke:none;" d="M346 173L347 174L346 173M144.333 174.667C144.278 174.722 144.222 175.778 144.667 175.333C144.722 175.278 144.778 174.222 144.333 174.667M228 174L229 175L228 174z"/>
<path style="fill:#396b52; stroke:none;" d="M340 174L341 175L340 174z"/>
<path style="fill:#ffffff; stroke:none;" d="M347 174L348 175L347 174z"/>
<path style="fill:#396b52; stroke:none;" d="M356 174L357 175L356 174z"/>
<path style="fill:#b5a0a1; stroke:none;" d="M358 174L359 175L358 174z"/>
<path style="fill:#ffffff; stroke:none;" d="M394 174L395 175L394 174z"/>
<path style="fill:#b5a0a1; stroke:none;" d="M470.333 174.667C470.278 174.722 470.222 175.778 470.667 175.333C470.722 175.278 470.778 174.222 470.333 174.667z"/>
<path style="fill:#396b52; stroke:none;" d="M227 175L228 176L227 175M342 175L343 176L342 175z"/>
<path style="fill:#ffffff; stroke:none;" d="M399 175L400 176L399 175M244 176L245 177L244 176M392.333 176.667C392.278 176.722 392.222 177.778 392.667 177.333C392.722 177.278 392.778 176.222 392.333 176.667z"/>
<path style="fill:#396b52; stroke:none;" d="M398 176L399 177L398 176z"/>
<path style="fill:#b5a0a1; stroke:none;" d="M412 176L413 177L412 176z"/>
<path style="fill:#ffffff; stroke:none;" d="M245 177L246 178L245 177z"/>
<path style="fill:#396b52; stroke:none;" d="M340 177L341 178L340 177z"/>
<path style="fill:#ffffff; stroke:none;" d="M345.667 177.333C345.222 177.778 346.278 177.722 346.333 177.667C346.778 177.222 345.722 177.278 345.667 177.333z"/>
<path style="fill:#b5a0a1; stroke:none;" d="M214 178L215 179L214 178M228 178L229 179L228 178M233 178L234 179L233 178M239 179L240 180L239 179z"/>
<path style="fill:#ffffff; stroke:none;" d="M323.667 179.333C323.222 179.778 324.278 179.722 324.333 179.667C324.778 179.222 323.722 179.278 323.667 179.333z"/>
<path style="fill:#396b52; stroke:none;" d="M325 179L326 180L325 179z"/>
<path style="fill:#ffffff; stroke:none;" d="M335 179C336.506 179.683 337.315 179.826 339 180C337.494 179.317 336.685 179.174 335 179z"/>
<path style="fill:#b5a0a1; stroke:none;" d="M463.333 179.667C463.278 179.722 463.222 180.778 463.667 180.333C463.722 180.278 463.778 179.222 463.333 179.667M151.333 180.667C151.278 180.722 151.222 181.778 151.667 181.333C151.722 181.278 151.778 180.222 151.333 180.667z"/>
<path style="fill:#396b52; stroke:none;" d="M213 180L214 181L213 180z"/>
<path style="fill:#ffffff; stroke:none;" d="M221 183C222.949 182.064 223.55 181.608 225 180C223.051 180.936 222.45 181.392 221 183z"/>
<path style="fill:#b5a0a1; stroke:none;" d="M243 180L244 181L243 180M258.667 180.333C258.222 180.778 259.278 180.722 259.333 180.667C259.778 180.222 258.722 180.278 258.667 180.333z"/>
<path style="fill:#396b52; stroke:none;" d="M326 180L327 181L326 180z"/>
<path style="fill:#b5a0a1; stroke:none;" d="M337 180L338 181L337 180M391 180L392 181L391 180z"/>
<path style="fill:#396b52; stroke:none;" d="M406 180L407 181L406 180z"/>
<path style="fill:#ffffff; stroke:none;" d="M212 181L213 182L212 181M258 181C257.014 182.478 257 182.203 257 184C258.082 182.616 258.191 182.662 258 181M327 181L328 182L327 181z"/>
<path style="fill:#396b52; stroke:none;" d="M338 181L339 182L338 181z"/>
<path style="fill:#b5a0a1; stroke:none;" d="M341 181L342 182L341 181z"/>
<path style="fill:#396b52; stroke:none;" d="M463 181L463 184C463.696 182.446 463.696 182.554 463 181M151.333 182.667C151.278 182.722 151.222 183.778 151.667 183.333C151.722 183.278 151.778 182.222 151.333 182.667z"/>
<path style="fill:#b5a0a1; stroke:none;" d="M226 182L227 183L226 182z"/>
<path style="fill:#ffffff; stroke:none;" d="M227 182C226.014 183.478 226 183.203 226 185C227.289 183.557 227.401 183.766 227 182M249.667 182.333C249.222 182.778 250.278 182.722 250.333 182.667C250.778 182.222 249.722 182.278 249.667 182.333z"/>
<path style="fill:#b5a0a1; stroke:none;" d="M251.333 182.667C251.278 182.722 251.222 183.778 251.667 183.333C251.722 183.278 251.778 182.222 251.333 182.667M258 182L259 183L258 182M220 183L221 184L220 183z"/>
<path style="fill:#396b52; stroke:none;" d="M222 183L223 184L222 183M344 183L345 184L344 183M322.333 184.667C322.278 184.722 322.222 185.778 322.667 185.333C322.722 185.278 322.778 184.222 322.333 184.667z"/>
<path style="fill:#ffffff; stroke:none;" d="M402 184L403 185L402 184z"/>
<path style="fill:#396b52; stroke:none;" d="M408 184L409 185L408 184z"/>
<path style="fill:#b5a0a1; stroke:none;" d="M225 185L226 186L225 185M401 185L402 186L401 185z"/>
<path style="fill:#396b52; stroke:none;" d="M407 185L408 186L407 185z"/>
<path style="fill:#b5a0a1; stroke:none;" d="M209 186L210 187L209 186M339 186L340 187L339 186z"/>
<path style="fill:#396b52; stroke:none;" d="M342 186L343 187L342 186z"/>
<path style="fill:#ffffff; stroke:none;" d="M400 186L401 187L400 186z"/>
<path style="fill:#396b52; stroke:none;" d="M211.333 187.667C211.278 187.722 211.222 188.778 211.667 188.333C211.722 188.278 211.778 187.222 211.333 187.667z"/>
<path style="fill:#b5a0a1; stroke:none;" d="M218 187L219 188L218 187z"/>
<path style="fill:#ffffff; stroke:none;" d="M340 187L341 188L340 187z"/>
<path style="fill:#396b52; stroke:none;" d="M343 187L344 188L343 187z"/>
<path style="fill:#b5a0a1; stroke:none;" d="M145 188L146 189L145 188z"/>
<path style="fill:#ffffff; stroke:none;" d="M210 188L209 192C210.303 190.332 210.553 190.008 210 188z"/>
<path style="fill:#396b52; stroke:none;" d="M389 188L390 189L389 188z"/>
<path style="fill:#b5a0a1; stroke:none;" d="M469 188L470 189L469 188M209 189L210 190L209 189z"/>
<path style="fill:#ffffff; stroke:none;" d="M396 189L397 190L396 189z"/>
<path style="fill:#396b52; stroke:none;" d="M397 189L398 190L397 189z"/>
<path style="fill:#ffffff; stroke:none;" d="M412.333 189.667C412.278 189.722 412.222 190.778 412.667 190.333C412.722 190.278 412.778 189.222 412.333 189.667z"/>
<path style="fill:#b5a0a1; stroke:none;" d="M415 189L416 190L415 189z"/>
<path style="fill:#396b52; stroke:none;" d="M415.333 190.667C415.278 190.722 415.222 191.778 415.667 191.333C415.722 191.278 415.778 190.222 415.333 190.667M207 191L208 192L207 191M217 191L218 192L217 191z"/>
<path style="fill:#ffffff; stroke:none;" d="M316 191C316.245 202.81 322.887 212.179 333 218C329.373 212.83 324.717 208.482 321.475 203C319.196 199.145 318.728 194.462 316 191z"/>
<path style="fill:#b5a0a1; stroke:none;" d="M317 191L318 192L317 191z"/>
<path style="fill:#396b52; stroke:none;" d="M220 192L221 193L220 192M315.333 192.667C315.278 192.722 315.222 193.778 315.667 193.333C315.722 193.278 315.778 192.222 315.333 192.667z"/>
<path style="fill:#b5a0a1; stroke:none;" d="M415 192L416 193L415 192M152 193L153 194L152 193M220 193L221 194L220 193M232 193L233 194L232 193z"/>
<path style="fill:#396b52; stroke:none;" d="M233 193L234 194L233 193z"/>
<path style="fill:#ffffff; stroke:none;" d="M238 193C241.626 195.702 245.582 197.987 250 199C246.653 195.388 242.838 193.728 238 193z"/>
<path style="fill:#b5a0a1; stroke:none;" d="M411 193L412 194L411 193M462 193L463 194L462 193z"/>
<path style="fill:#396b52; stroke:none;" d="M152 194L153 195L152 194z"/>
<path style="fill:#b5a0a1; stroke:none;" d="M230 194L231 195L230 194z"/>
<path style="fill:#396b52; stroke:none;" d="M240 194L241 195L240 194M324 194L325 195L324 194z"/>
<path style="fill:#b5a0a1; stroke:none;" d="M389.333 194.667C389.278 194.722 389.222 195.778 389.667 195.333C389.722 195.278 389.778 194.222 389.333 194.667z"/>
<path style="fill:#396b52; stroke:none;" d="M462 194L463 195L462 194z"/>
<path style="fill:#ffffff; stroke:none;" d="M236 195L237 196L236 195z"/>
<path style="fill:#b5a0a1; stroke:none;" d="M414 195L415 196L414 195M206 196L207 197L206 196z"/>
<path style="fill:#396b52; stroke:none;" d="M215 196L216 197L215 196z"/>
<path style="fill:#b5a0a1; stroke:none;" d="M325 196L326 197L325 196z"/>
<path style="fill:#396b52; stroke:none;" d="M401 196L402 197L401 196z"/>
<path style="fill:#b5a0a1; stroke:none;" d="M146 197L147 198L146 197z"/>
<path style="fill:#ffffff; stroke:none;" d="M239 197L240 198L239 197z"/>
<path style="fill:#b5a0a1; stroke:none;" d="M245 197L246 198L245 197M316 197L317 198L316 197M401 197L401 201C401.71 199.24 401.71 198.76 401 197M413 197L414 198L413 197M468 197L469 198L468 197z"/>
<path style="fill:#396b52; stroke:none;" d="M216 198L217 199L216 198z"/>
<path style="fill:#ffffff; stroke:none;" d="M204 199L205 200L204 199z"/>
<path style="fill:#396b52; stroke:none;" d="M221 199L222 200L221 199z"/>
<path style="fill:#b5a0a1; stroke:none;" d="M231 199L232 200L231 199z"/>
<path style="fill:#396b52; stroke:none;" d="M249 199L250 200L249 199M319 199L320 200L319 199z"/>
<path style="fill:#b5a0a1; stroke:none;" d="M407 199L408 200L407 199z"/>
<path style="fill:#396b52; stroke:none;" d="M204 200L205 201L204 200z"/>
<path style="fill:#b5a0a1; stroke:none;" d="M217 200L218 201L217 200z"/>
<path style="fill:#ffffff; stroke:none;" d="M225 200C225.003 204.38 225.078 208.006 227 212C227.467 208.314 226.471 203.409 225 200z"/>
<path style="fill:#b5a0a1; stroke:none;" d="M327 200L328 201L327 200z"/>
<path style="fill:#396b52; stroke:none;" d="M390 200L391 201L390 200z"/>
<path style="fill:#ffffff; stroke:none;" d="M406 200L407 201L406 200z"/>
<path style="fill:#396b52; stroke:none;" d="M217 201L218 202L217 201M224 201L225 202L224 201z"/>
<path style="fill:#b5a0a1; stroke:none;" d="M246 201L247 202L246 201M217 202L218 203L217 202M224 202L224 205C224.696 203.446 224.696 203.554 224 202z"/>
<path style="fill:#ffffff; stroke:none;" d="M206 203L206 207C206.71 205.24 206.71 204.759 206 203z"/>
<path style="fill:#b5a0a1; stroke:none;" d="M207.333 203.667C207.278 203.722 207.222 204.778 207.667 204.333C207.722 204.278 207.778 203.222 207.333 203.667z"/>
<path style="fill:#ffffff; stroke:none;" d="M249 203L250 204L249 203z"/>
<path style="fill:#396b52; stroke:none;" d="M321 203L322 204L321 203z"/>
<path style="fill:#b5a0a1; stroke:none;" d="M153 204L154 205L153 204M216 204L217 205L216 204z"/>
<path style="fill:#396b52; stroke:none;" d="M222 204L223 205L222 204z"/>
<path style="fill:#b5a0a1; stroke:none;" d="M319 204L320 205L319 204M461 204L462 205L461 204z"/>
<path style="fill:#396b52; stroke:none;" d="M153 205L154 206L153 205M205 205L206 206L205 205z"/>
<path style="fill:#b5a0a1; stroke:none;" d="M215 205L216 206L215 205M222 205L223 206L222 205z"/>
<path style="fill:#396b52; stroke:none;" d="M224 205L225 206L224 205z"/>
<path style="fill:#b5a0a1; stroke:none;" d="M252 205L253 206L252 205z"/>
<path style="fill:#396b52; stroke:none;" d="M330 205L331 206L330 205M408 205L409 206L408 205M461 205L462 206L461 205M147 206L148 207L147 206M226 206L227 207L226 206M320 206L321 207L320 206M467 206L468 207L467 206z"/>
<path style="fill:#b5a0a1; stroke:none;" d="M147 207L148 208L147 207M467 207L468 208L467 207M392 208L393 209L392 208z"/>
<path style="fill:#396b52; stroke:none;" d="M203 209L204 210L203 209z"/>
<path style="fill:#b5a0a1; stroke:none;" d="M208 209L209 210L208 209z"/>
<path style="fill:#396b52; stroke:none;" d="M256 209L257 210L256 209z"/>
<path style="fill:#b5a0a1; stroke:none;" d="M227 210L228 211L227 210M323 210L324 211L323 210M154 211L155 212L154 211M226 211L227 212L226 211M335 211L336 212L335 211z"/>
<path style="fill:#396b52; stroke:none;" d="M407 211L408 212L407 211z"/>
<path style="fill:#b5a0a1; stroke:none;" d="M460 211L461 212L460 211M232 212L233 213L232 212z"/>
<path style="fill:#396b52; stroke:none;" d="M328 212L329 213L328 212z"/>
<path style="fill:#b5a0a1; stroke:none;" d="M148 213L149 214L148 213z"/>
<path style="fill:#ffffff; stroke:none;" d="M155 213L155 217C155.71 215.24 155.71 214.759 155 213z"/>
<path style="fill:#396b52; stroke:none;" d="M326 213L327 214L326 213M337 213L338 214L337 213M393 213L394 214L393 213z"/>
<path style="fill:#b5a0a1; stroke:none;" d="M466 213L467 214L466 213z"/>
<path style="fill:#396b52; stroke:none;" d="M223 214L224 215L223 214z"/>
<path style="fill:#ffffff; stroke:none;" d="M273 214C278.032 225.66 289.726 237.245 301 243C296.792 237.026 291.057 232.334 286.09 227C281.884 222.485 278.446 217.067 273 214z"/>
<path style="fill:#396b52; stroke:none;" d="M274 214L275 215L274 214z"/>
<path style="fill:#b5a0a1; stroke:none;" d="M233 215L234 216L233 215z"/>
<path style="fill:#396b52; stroke:none;" d="M273 215L274 216L273 215M331 215L332 216L331 215z"/>
<path style="fill:#b5a0a1; stroke:none;" d="M330 216L331 217L330 216M155 217L156 218L155 217M274 217L275 218L274 217M342 217L343 218L342 217M407 217L408 218L407 217M459 217L460 218L459 217M149 218L150 219L149 218M268 218L269 219L268 218M278 218L279 219L278 218z"/>
<path style="fill:#396b52; stroke:none;" d="M407 218L408 219L407 218z"/>
<path style="fill:#b5a0a1; stroke:none;" d="M465 218L466 219L465 218z"/>
<path style="fill:#396b52; stroke:none;" d="M235 220L236 221L235 220M346 220L347 221L346 220z"/>
<path style="fill:#b5a0a1; stroke:none;" d="M270 221L271 222L270 221M394 221L394 227C394.951 224.715 394.951 223.285 394 221z"/>
<path style="fill:#ffffff; stroke:none;" d="M399 221C400.609 227.756 400.046 235.945 396.287 241.999C393.859 245.91 390.276 248.479 389 253C398.026 248.315 402.807 239.131 401.711 229C401.387 226.006 401.282 222.984 399 221z"/>
<path style="fill:#396b52; stroke:none;" d="M399 222L399 227C399.83 224.97 399.83 224.03 399 222z"/>
<path style="fill:#b5a0a1; stroke:none;" d="M271 223L272 224L271 223z"/>
<path style="fill:#ffffff; stroke:none;" d="M350 223L351 224L350 223z"/>
<path style="fill:#b5a0a1; stroke:none;" d="M408 223L409 224L408 223M156 224L157 225L156 224M272 224L273 225L272 224M283 224L284 225L283 224z"/>
<path style="fill:#396b52; stroke:none;" d="M458 224L459 225L458 224z"/>
<path style="fill:#b5a0a1; stroke:none;" d="M150 225L151 226L150 225z"/>
<path style="fill:#396b52; stroke:none;" d="M280 225L281 226L280 225M284 225L285 226L284 225z"/>
<path style="fill:#b5a0a1; stroke:none;" d="M464 225L465 226L464 225M281 226L282 227L281 226z"/>
<path style="fill:#ffffff; stroke:none;" d="M226 227L227 228L226 227M274 227L275 228L274 227z"/>
<path style="fill:#396b52; stroke:none;" d="M394 227L395 228L394 227z"/>
<path style="fill:#b5a0a1; stroke:none;" d="M401 227L402 228L401 227M157 229L158 230L157 229M228 229L229 230L228 229M276 229L277 230L276 229M356 229L357 230L356 229z"/>
<path style="fill:#396b52; stroke:none;" d="M457 229L458 230L457 229M277 230L278 231L277 230M285 230L286 231L285 230M357 230L358 231L357 230M229 231L230 232L229 231z"/>
<path style="fill:#b5a0a1; stroke:none;" d="M358 231L359 232L358 231z"/>
<path style="fill:#ffffff; stroke:none;" d="M456 231L456 234C456.696 232.446 456.696 232.554 456 231z"/>
<path style="fill:#b5a0a1; stroke:none;" d="M399 232L400 233L399 232M244 233L245 234L244 233M152 234L153 235L152 234M289 234L290 235L289 234z"/>
<path style="fill:#ffffff; stroke:none;" d="M326 243C328.983 240.856 331.342 237.274 333 234C328.185 235.368 326.371 238.083 326 243z"/>
<path style="fill:#b5a0a1; stroke:none;" d="M333 234L334 235L333 234M462 234L463 235L462 234z"/>
<path style="fill:#396b52; stroke:none;" d="M290 235L291 236L290 235M333 235L334 236L333 235z"/>
<path style="fill:#b5a0a1; stroke:none;" d="M401 235L402 236L401 235z"/>
<path style="fill:#396b52; stroke:none;" d="M401 236L402 237L401 236z"/>
<path style="fill:#b5a0a1; stroke:none;" d="M284 237L285 238L284 237M285 238L286 239L285 238M294 238L295 239L294 238z"/>
<path style="fill:#396b52; stroke:none;" d="M297 238L298 239L297 238M153 239L154 240L153 239z"/>
<path style="fill:#b5a0a1; stroke:none;" d="M159 239L160 240L159 239z"/>
<path style="fill:#396b52; stroke:none;" d="M286 239L287 240L286 239z"/>
<path style="fill:#b5a0a1; stroke:none;" d="M295 239L296 240L295 239M455 239L456 240L455 239z"/>
<path style="fill:#396b52; stroke:none;" d="M461 239L462 240L461 239z"/>
<path style="fill:#ffffff; stroke:none;" d="M237 240C237.899 242.124 237.876 242.101 240 243C238.897 241.543 238.457 241.103 237 240z"/>
<path style="fill:#b5a0a1; stroke:none;" d="M238 240L239 241L238 240M244 240L245 241L244 240z"/>
<path style="fill:#396b52; stroke:none;" d="M299 240L300 241L299 240M391 240L392 241L391 240z"/>
<path style="fill:#b5a0a1; stroke:none;" d="M397 240L398 241L397 240M234 241L235 242L234 241M239 241L240 242L239 241z"/>
<path style="fill:#396b52; stroke:none;" d="M300 241L301 242L300 241z"/>
<path style="fill:#b5a0a1; stroke:none;" d="M365 241L366 242L365 241M396 242L397 243L396 242M154 243L155 244L154 243z"/>
<path style="fill:#396b52; stroke:none;" d="M160 243L161 244L160 243M389 243L390 244L389 243M395 243L396 244L395 243z"/>
<path style="fill:#b5a0a1; stroke:none;" d="M407 243L408 244L407 243z"/>
<path style="fill:#396b52; stroke:none;" d="M454 243L455 244L454 243z"/>
<path style="fill:#b5a0a1; stroke:none;" d="M460 243L461 244L460 243z"/>
<path style="fill:#396b52; stroke:none;" d="M243 244L244 245L243 244z"/>
<path style="fill:#ffffff; stroke:none;" d="M388 244L389 245L388 244z"/>
<path style="fill:#b5a0a1; stroke:none;" d="M398 244L399 245L398 244M237 245L238 246L237 245M238 246L239 247L238 246M155 247L156 248L155 247M459 247L460 248L459 247z"/>
<path style="fill:#396b52; stroke:none;" d="M297 248L298 249L297 248z"/>
<path style="fill:#b5a0a1; stroke:none;" d="M368 248L369 249L368 248z"/>
<path style="fill:#ffffff; stroke:none;" d="M384 248L385 249L384 248z"/>
<path style="fill:#b5a0a1; stroke:none;" d="M391 248L392 249L391 248M369 251L370 252L369 251M295 252L296 253L295 252z"/>
<path style="fill:#396b52; stroke:none;" d="M327 252L328 253L327 252z"/>
<path style="fill:#ffffff; stroke:none;" d="M375.667 252.333C375.222 252.778 376.278 252.722 376.333 252.667C376.778 252.222 375.722 252.278 375.667 252.333z"/>
<path style="fill:#396b52; stroke:none;" d="M377 252L378 253L377 252M390 252L391 253L390 252z"/>
<path style="fill:#b5a0a1; stroke:none;" d="M374 253L375 254L374 253M400 254L401 255L400 254z"/>
<path style="fill:#396b52; stroke:none;" d="M307 255L308 256L307 255M325 255L326 256L325 255z"/>
<path style="fill:#ffffff; stroke:none;" d="M399 255L400 256L399 255z"/>
<path style="fill:#396b52; stroke:none;" d="M327 256L328 257L327 256z"/>
<path style="fill:#b5a0a1; stroke:none;" d="M158 258L159 259L158 258z"/>
<path style="fill:#396b52; stroke:none;" d="M164 258L165 259L164 258M307 258L308 259L307 258z"/>
<path style="fill:#b5a0a1; stroke:none;" d="M311 258L312 259L311 258z"/>
<path style="fill:#396b52; stroke:none;" d="M362 258L363 259L362 258z"/>
<path style="fill:#ffffff; stroke:none;" d="M363 258L361 269C365.093 266.496 365.873 261.812 363 258z"/>
<path style="fill:#396b52; stroke:none;" d="M393 258L394 259L393 258M450 258L451 259L450 258z"/>
<path style="fill:#b5a0a1; stroke:none;" d="M456 258L457 259L456 258M326 259L327 260L326 259M391 259L392 260L391 259M313 260L314 261L313 260z"/>
<path style="fill:#396b52; stroke:none;" d="M295 261L296 262L295 261z"/>
<path style="fill:#b5a0a1; stroke:none;" d="M389 261L390 262L389 261M159 262L160 263L159 262M165 262L166 263L165 262M295 262L296 263L295 262z"/>
<path style="fill:#ffffff; stroke:none;" d="M314.333 262.667C314.278 262.722 314.222 263.778 314.667 263.333C314.722 263.278 314.778 262.222 314.333 262.667z"/>
<path style="fill:#396b52; stroke:none;" d="M325 262L326 263L325 262z"/>
<path style="fill:#b5a0a1; stroke:none;" d="M449 262L450 263L449 262M455 262L456 263L455 262M313 263L314 264L313 263z"/>
<path style="fill:#ffffff; stroke:none;" d="M324 263L325 264L324 263z"/>
<path style="fill:#b5a0a1; stroke:none;" d="M382 263L383 264L382 263z"/>
<path style="fill:#396b52; stroke:none;" d="M371 264L372 265L371 264M382 264L383 265L382 264z"/>
<path style="fill:#b5a0a1; stroke:none;" d="M384 264L385 265L384 264z"/>
<path style="fill:#396b52; stroke:none;" d="M390 264L391 265L390 264M160 265L161 266L160 265z"/>
<path style="fill:#b5a0a1; stroke:none;" d="M166 265L167 266L166 265z"/>
<path style="fill:#396b52; stroke:none;" d="M323 265L324 266L323 265z"/>
<path style="fill:#b5a0a1; stroke:none;" d="M448 265L449 266L448 265z"/>
<path style="fill:#396b52; stroke:none;" d="M454 265L455 266L454 265z"/>
<path style="fill:#b5a0a1; stroke:none;" d="M369 266L370 267L369 266M361 267L362 268L361 267M161 268L162 269L161 268M167 268L168 269L167 268z"/>
<path style="fill:#396b52; stroke:none;" d="M386 268L387 269L386 268z"/>
<path style="fill:#b5a0a1; stroke:none;" d="M447 268L448 269L447 268M453 268L454 269L453 268z"/>
<path style="fill:#396b52; stroke:none;" d="M384 269L385 270L384 269z"/>
<path style="fill:#b5a0a1; stroke:none;" d="M368 271L369 272L368 271M391 271L392 272L391 271z"/>
<path style="fill:#396b52; stroke:none;" d="M168 272L169 273L168 272M372 272L373 273L372 272z"/>
<path style="fill:#ffffff; stroke:none;" d="M376.667 272.333C376.222 272.778 377.278 272.722 377.333 272.667C377.778 272.222 376.722 272.278 376.667 272.333z"/>
<path style="fill:#396b52; stroke:none;" d="M446 272L447 273L446 272z"/>
<path style="fill:#b5a0a1; stroke:none;" d="M452 272L453 273L452 272z"/>
<path style="fill:#ffffff; stroke:none;" d="M169.333 273.667C169.278 273.722 169.222 274.778 169.667 274.333C169.722 274.278 169.778 273.222 169.333 273.667z"/>
<path style="fill:#396b52; stroke:none;" d="M298 273L299 274L298 273z"/>
<path style="fill:#ffffff; stroke:none;" d="M323 275C320.985 279.188 320.934 282.51 322 287C323.419 283.626 324.076 278.497 323 275z"/>
<path style="fill:#b5a0a1; stroke:none;" d="M324 275L325 276L324 275z"/>
<path style="fill:#ffffff; stroke:none;" d="M367 275L368 276L367 275M318 276L319 277L318 276z"/>
<path style="fill:#396b52; stroke:none;" d="M366 276L367 277L366 276M371 276L372 277L371 276z"/>
<path style="fill:#b5a0a1; stroke:none;" d="M384 276L385 277L384 276M164 277L165 278L164 277M170 277L171 278L170 277M318 277L319 278L318 277M321 277L322 278L321 277M374 277L375 278L374 277M444 277L445 278L444 277z"/>
<path style="fill:#396b52; stroke:none;" d="M450 277L451 278L450 277M315 278L316 279L315 278z"/>
<path style="fill:#b5a0a1; stroke:none;" d="M387 278L388 279L387 278z"/>
<path style="fill:#ffffff; stroke:none;" d="M171.333 279.667C171.278 279.722 171.222 280.778 171.667 280.333C171.722 280.278 171.778 279.222 171.333 279.667z"/>
<path style="fill:#396b52; stroke:none;" d="M301 280L302 281L301 280z"/>
<path style="fill:#b5a0a1; stroke:none;" d="M373 280L374 281L373 280M377 280L378 281L377 280M390 280L391 281L390 280M363 281L364 282L363 281M302 282L303 283L302 282M317 282L318 283L317 282M362 282L363 283L362 282M166 283L167 284L166 283M172 283L173 284L172 283M442 283L443 284L442 283M448 283L449 284L448 283M303 284L304 285L303 284M372 284L373 285L372 284M321 285L322 286L321 285z"/>
<path style="fill:#ffffff; stroke:none;" d="M381 285L382 286L381 285z"/>
<path style="fill:#396b52; stroke:none;" d="M380 286L381 287L380 286z"/>
<path style="fill:#b5a0a1; stroke:none;" d="M374 287L375 288L374 287z"/>
<path style="fill:#ffffff; stroke:none;" d="M440.333 287.667C440.278 287.722 440.222 288.778 440.667 288.333C440.722 288.278 440.778 287.222 440.333 287.667z"/>
<path style="fill:#b5a0a1; stroke:none;" d="M305 288L306 289L305 288z"/>
<path style="fill:#396b52; stroke:none;" d="M317 288L318 289L317 288z"/>
<path style="fill:#b5a0a1; stroke:none;" d="M317 289L318 290L317 289M373 289L374 290L373 289M378 289L379 290L378 289M169 291L170 292L169 291z"/>
<path style="fill:#396b52; stroke:none;" d="M175 291L176 292L175 291z"/>
<path style="fill:#ffffff; stroke:none;" d="M353 291L354 292L353 291z"/>
<path style="fill:#b5a0a1; stroke:none;" d="M445 291L446 292L445 291z"/>
<path style="fill:#396b52; stroke:none;" d="M308 293L309 294L308 293z"/>
<path style="fill:#b5a0a1; stroke:none;" d="M318 294L319 295L318 294M177 296L178 297L177 296z"/>
<path style="fill:#396b52; stroke:none;" d="M316 297L317 298L316 297z"/>
<path style="fill:#ffffff; stroke:none;" d="M345 297L346 298L345 297M373 297L373 300C373.696 298.446 373.696 298.554 373 297z"/>
<path style="fill:#b5a0a1; stroke:none;" d="M343 298L344 299L343 298M309 299L310 300L309 299z"/>
<path style="fill:#396b52; stroke:none;" d="M342 299L343 300L342 299z"/>
<path style="fill:#ffffff; stroke:none;" d="M307 300L307 302C308.635 301.455 308.455 301.635 309 300L307 300z"/>
<path style="fill:#b5a0a1; stroke:none;" d="M317 300L318 301L317 300M341 300L342 301L341 300M372 300L373 301L372 300M280.667 301.333C280.222 301.778 281.278 301.722 281.333 301.667C281.778 301.222 280.722 301.278 280.667 301.333z"/>
<path style="fill:#396b52; stroke:none;" d="M312 301C312.545 302.635 312.365 302.455 314 303C313.455 301.365 313.635 301.545 312 301z"/>
<path style="fill:#ffffff; stroke:none;" d="M313.667 301.333C313.222 301.778 314.278 301.722 314.333 301.667C314.778 301.222 313.722 301.278 313.667 301.333z"/>
<path style="fill:#396b52; stroke:none;" d="M320 301L321 302L320 301z"/>
<path style="fill:#b5a0a1; stroke:none;" d="M259 302L260 303L259 302z"/>
<path style="fill:#ffffff; stroke:none;" d="M312 302L313 303L312 302z"/>
<path style="fill:#b5a0a1; stroke:none;" d="M340 302L341 303L340 302z"/>
<path style="fill:#396b52; stroke:none;" d="M174 303L175 304L174 303z"/>
<path style="fill:#b5a0a1; stroke:none;" d="M180 303L181 304L180 303M277 303L278 304L277 303z"/>
<path style="fill:#ffffff; stroke:none;" d="M278 303L279 304L278 303z"/>
<path style="fill:#b5a0a1; stroke:none;" d="M279 303L280 304L279 303M286 303L287 304L286 303M434 303L435 304L434 303M252 304L253 305L252 304z"/>
<path style="fill:#ffffff; stroke:none;" d="M286 304C290.484 307.063 296.749 306 302 306C297.363 304.05 291.037 304.042 286 304z"/>
<path style="fill:#b5a0a1; stroke:none;" d="M293 304L294 305L293 304z"/>
<path style="fill:#396b52; stroke:none;" d="M294 304L295 305L294 304M300.667 304.333C300.222 304.778 301.278 304.722 301.333 304.667C301.778 304.222 300.722 304.278 300.667 304.333z"/>
<path style="fill:#b5a0a1; stroke:none;" d="M339 304L340 305L339 304M250 305L251 306L250 305M254 305L255 306L254 305z"/>
<path style="fill:#ffffff; stroke:none;" d="M255 305C256.248 305.685 256.548 305.749 258 306C256.752 305.315 256.452 305.251 255 305z"/>
<path style="fill:#396b52; stroke:none;" d="M255.667 306.333C255.222 306.778 256.278 306.722 256.333 306.667C256.778 306.222 255.722 306.278 255.667 306.333z"/>
<path style="fill:#b5a0a1; stroke:none;" d="M182 307L183 308L182 307M432 307L433 308L432 307M247 308L248 309L247 308M280.667 309.333C280.222 309.778 281.278 309.722 281.333 309.667C281.778 309.222 280.722 309.278 280.667 309.333M286.667 309.333C286.222 309.778 287.278 309.722 287.333 309.667C287.778 309.222 286.722 309.278 286.667 309.333z"/>
<path style="fill:#396b52; stroke:none;" d="M288 309L289 310L288 309z"/>
<path style="fill:#b5a0a1; stroke:none;" d="M177 310L178 311L177 310M271 310L272 311L271 310M276 310L277 311L276 310M295 310L296 311L295 310M324 310L325 311L324 310z"/>
<path style="fill:#396b52; stroke:none;" d="M437 310L438 311L437 310z"/>
<path style="fill:#b5a0a1; stroke:none;" d="M300 311L301 312L300 311M339 311L340 312L339 311z"/>
<path style="fill:#ffffff; stroke:none;" d="M430 311L431 312L430 311z"/>
<path style="fill:#b5a0a1; stroke:none;" d="M178 312L179 313L178 312z"/>
<path style="fill:#396b52; stroke:none;" d="M252 312L253 313L252 312z"/>
<path style="fill:#b5a0a1; stroke:none;" d="M436 312L437 313L436 312M254 313L255 314L254 313z"/>
<path style="fill:#396b52; stroke:none;" d="M309 313L310 314L309 313z"/>
<path style="fill:#ffffff; stroke:none;" d="M319 313L320 314L319 313z"/>
<path style="fill:#b5a0a1; stroke:none;" d="M179 314L180 315L179 314M257 314L258 315L257 314z"/>
<path style="fill:#396b52; stroke:none;" d="M312 314L313 315L312 314z"/>
<path style="fill:#b5a0a1; stroke:none;" d="M435 314L436 315L435 314z"/>
<path style="fill:#396b52; stroke:none;" d="M327 315L328 316L327 315z"/>
<path style="fill:#b5a0a1; stroke:none;" d="M186 316L187 317L186 316z"/>
<path style="fill:#396b52; stroke:none;" d="M428 316L429 317L428 316M181 318L182 319L181 318z"/>
<path style="fill:#ffffff; stroke:none;" d="M329.333 319.667C329.278 319.722 329.222 320.778 329.667 320.333C329.722 320.278 329.778 319.222 329.333 319.667M426 319L427 320L426 319z"/>
<path style="fill:#396b52; stroke:none;" d="M182 320L183 321L182 320M329 321L330 322L329 321z"/>
<path style="fill:#b5a0a1; stroke:none;" d="M343 321L343 325C343.71 323.241 343.71 322.759 343 321z"/>
<path style="fill:#396b52; stroke:none;" d="M189 322L190 323L189 322M425 322L426 323L425 322z"/>
<path style="fill:#b5a0a1; stroke:none;" d="M328 323L329 324L328 323z"/>
<path style="fill:#ffffff; stroke:none;" d="M338 323L338 325C339.635 324.455 339.455 324.635 340 323L338 323M424 323L425 324L424 323z"/>
<path style="fill:#396b52; stroke:none;" d="M184 324L185 325L184 324M327 324L328 325L327 324M430 324L431 325L430 324z"/>
<path style="fill:#b5a0a1; stroke:none;" d="M326 325L327 326L326 325M185 326L186 327L185 326z"/>
<path style="fill:#ffffff; stroke:none;" d="M422.333 326.667C422.278 326.722 422.222 327.778 422.667 327.333C422.722 327.278 422.778 326.222 422.333 326.667z"/>
<path style="fill:#396b52; stroke:none;" d="M429 326L430 327L429 326z"/>
<path style="fill:#ffffff; stroke:none;" d="M329 327C325.169 330.821 320.666 334.266 318 339C322.276 336.325 328.657 332.449 329 327z"/>
<path style="fill:#396b52; stroke:none;" d="M330 327L331 328L330 327M186 328L187 329L186 328M327 328L328 329L327 328z"/>
<path style="fill:#b5a0a1; stroke:none;" d="M329 328L330 329L329 328z"/>
<path style="fill:#396b52; stroke:none;" d="M339 328L340 329L339 328M326 329L327 330L326 329z"/>
<path style="fill:#b5a0a1; stroke:none;" d="M321 330L322 331L321 330z"/>
<path style="fill:#396b52; stroke:none;" d="M325 330L326 331L325 330z"/>
<path style="fill:#ffffff; stroke:none;" d="M420 330L421 331L420 330z"/>
<path style="fill:#b5a0a1; stroke:none;" d="M320 331L321 332L320 331z"/>
<path style="fill:#396b52; stroke:none;" d="M324 331L325 332L324 331M323 332L324 333L323 332z"/>
<path style="fill:#b5a0a1; stroke:none;" d="M322 333L323 334L322 333z"/>
<path style="fill:#ffffff; stroke:none;" d="M316 334L317 335L316 334z"/>
<path style="fill:#b5a0a1; stroke:none;" d="M321 334L322 335L321 334z"/>
<path style="fill:#ffffff; stroke:none;" d="M418 334L419 335L418 334M315 335L316 336L315 335z"/>
<path style="fill:#396b52; stroke:none;" d="M197 336L198 337L197 336M313 337L314 338L313 337z"/>
<path style="fill:#b5a0a1; stroke:none;" d="M423 337L424 338L423 337M198 338L199 339L198 338M416 338L417 339L416 338M260 339L261 340L260 339z"/>
<path style="fill:#221e1a; stroke:none;" d="M280 354C279.001 349.644 277.598 345.44 277 341C271.702 341.925 268.096 339.639 263 339.489C254.014 339.225 248.07 348.67 254.394 355.812C259.842 361.964 269.125 361.891 274.721 367.394C277.052 369.686 278.021 372.917 276.642 375.985C272.693 384.772 256.285 385.588 252.605 375.976C250.698 370.994 258.107 371.549 257.534 367.171C257.185 364.505 254.109 364.204 252.129 365.223C245.867 368.445 248.164 377.786 252.225 381.725C257.607 386.948 267.417 387.241 273.91 384.095C276.044 383.061 278.007 381.579 279.437 379.671C280.923 377.689 281.662 375.449 281.894 373C282.08 371.044 282.048 368.921 281.606 367.001C278.94 355.44 263.613 357.923 258.752 348.9C256.501 344.723 261.74 342.839 265 343.41C271.492 344.546 275.227 350.155 280 354z"/>
<path style="fill:#b5a0a1; stroke:none;" d="M264 339L265 340L264 339z"/>
<path style="fill:#396b52; stroke:none;" d="M324 339L325 340L324 339z"/>
<path style="fill:#b5a0a1; stroke:none;" d="M393 339L394 340L393 339z"/>
<path style="fill:#221e1a; stroke:none;" d="M352 349C350.426 349.743 348.182 351.265 346.333 350.558C342.896 349.244 346.143 345.691 348.059 344.894C353.391 342.678 360.486 345.564 366 346C362.513 349.876 360.544 354.724 357.197 358.586C355.045 361.068 352.103 362.4 350 365L356 364C352.759 369.674 350.638 376.452 344.985 380.297C336.626 385.982 328.578 378.888 329 370C332.05 370.694 337.583 368.374 333.393 364.846C330.61 362.504 327.242 365.565 326.149 368.105C324.483 371.976 325.324 376.57 327.703 379.957C334.866 390.157 348.861 386.113 355.671 377.995C358.639 374.458 359.88 369.747 362.815 366.314C365.643 363.005 369.623 363.073 372 359L365 361C365.733 356.301 368 349.657 372.329 347.028C374.994 345.409 378.995 345.793 382 345.192C386.931 344.206 391.577 342.356 396 340C391.212 338.906 385.936 341.737 381 341.961C370.999 342.415 360.863 338.67 351 340.465C346.49 341.285 341.353 343.211 339.786 348.004C338.429 352.157 341.689 355.994 345.988 355.087C349.415 354.365 350.912 352.026 352 349z"/>
<path style="fill:#396b52; stroke:none;" d="M257 340L258 341L257 340z"/>
<path style="fill:#b5a0a1; stroke:none;" d="M276 340L277 341L276 340z"/>
<path style="fill:#396b52; stroke:none;" d="M309 340L310 341L309 340M350 340L351 341L350 340z"/>
<path style="fill:#b5a0a1; stroke:none;" d="M362 340L363 341L362 340M389 340L390 341L389 340M395 340L396 341L395 340M200 341L201 342L200 341M255 341L256 342L255 341z"/>
<path style="fill:#396b52; stroke:none;" d="M269 341L270 342L269 341z"/>
<path style="fill:#b5a0a1; stroke:none;" d="M368 341L369 342L368 341z"/>
<path style="fill:#396b52; stroke:none;" d="M385 341L386 342L385 341M393 341L394 342L393 341z"/>
<path style="fill:#b5a0a1; stroke:none;" d="M414 341L415 342L414 341M194 342L195 343L194 342z"/>
<path style="fill:#396b52; stroke:none;" d="M311 342L312 343L311 342M390 342L391 343L390 342z"/>
<path style="fill:#b5a0a1; stroke:none;" d="M420 342L421 343L420 342z"/>
<path style="fill:#ffffff; stroke:none;" d="M252.333 343.667C252.278 343.722 252.222 344.778 252.667 344.333C252.722 344.278 252.778 343.222 252.333 343.667z"/>
<path style="fill:#b5a0a1; stroke:none;" d="M266 343L267 344L266 343z"/>
<path style="fill:#396b52; stroke:none;" d="M309 343L310 344L309 343z"/>
<path style="fill:#ffffff; stroke:none;" d="M310 343L309 345L311 345C311 343.147 311.3 343.65 310 343z"/>
<path style="fill:#b5a0a1; stroke:none;" d="M311 343L312 344L311 343z"/>
<path style="fill:#ffffff; stroke:none;" d="M321 343L322 344L321 343z"/>
<path style="fill:#396b52; stroke:none;" d="M388 343L389 344L388 343M195 344L196 345L195 344z"/>
<path style="fill:#b5a0a1; stroke:none;" d="M277 344L278 345L277 344M348 344L349 345L348 344M355 344L356 345L355 344z"/>
<path style="fill:#396b52; stroke:none;" d="M385 344L386 345L385 344z"/>
<path style="fill:#ffffff; stroke:none;" d="M412 344L413 345L412 344z"/>
<path style="fill:#396b52; stroke:none;" d="M419 344L420 345L419 344z"/>
<path style="fill:#ffffff; stroke:none;" d="M269.667 345.333C269.222 345.778 270.278 345.722 270.333 345.667C270.778 345.222 269.722 345.278 269.667 345.333z"/>
<path style="fill:#396b52; stroke:none;" d="M304 345L305 346L304 345M345 345L346 346L345 345z"/>
<path style="fill:#b5a0a1; stroke:none;" d="M361 345L362 346L361 345z"/>
<path style="fill:#396b52; stroke:none;" d="M380 345L381 346L380 345z"/>
<path style="fill:#b5a0a1; stroke:none;" d="M272 346L273 347L272 346z"/>
<path style="fill:#396b52; stroke:none;" d="M318 346L319 347L318 346z"/>
<path style="fill:#b5a0a1; stroke:none;" d="M344 346L345 347L344 346z"/>
<path style="fill:#ffffff; stroke:none;" d="M365 346L366 347L365 346z"/>
<path style="fill:#b5a0a1; stroke:none;" d="M371 346C372.248 346.685 372.548 346.749 374 347C372.752 346.315 372.452 346.251 371 346M197 347L198 348L197 347z"/>
<path style="fill:#396b52; stroke:none;" d="M251 347L252 348L251 347z"/>
<path style="fill:#ffffff; stroke:none;" d="M410 347L411 348L410 347z"/>
<path style="fill:#b5a0a1; stroke:none;" d="M417 347L418 348L417 347M278 348L279 349L278 348M317 348L318 349L317 348z"/>
<path style="fill:#396b52; stroke:none;" d="M205 349L206 350L205 349z"/>
<path style="fill:#ffffff; stroke:none;" d="M275 349L276 350L275 349z"/>
<path style="fill:#396b52; stroke:none;" d="M409 349L410 350L409 349z"/>
<path style="fill:#ffffff; stroke:none;" d="M298.667 350.333C298.222 350.778 299.278 350.722 299.333 350.667C299.778 350.222 298.722 350.278 298.667 350.333M408 350L409 351L408 350z"/>
<path style="fill:#b5a0a1; stroke:none;" d="M251 351L252 352L251 351z"/>
<path style="fill:#396b52; stroke:none;" d="M260 351L261 352L260 351z"/>
<path style="fill:#b5a0a1; stroke:none;" d="M279 351L280 352L279 351M315 351L316 352L315 351z"/>
<path style="fill:#396b52; stroke:none;" d="M345 351L346 352L345 351z"/>
<path style="fill:#b5a0a1; stroke:none;" d="M347 351L348 352L347 351z"/>
<path style="fill:#396b52; stroke:none;" d="M313 352L314 353L313 352M339 352L340 353L339 352z"/>
<path style="fill:#ffffff; stroke:none;" d="M208 353L209 354L208 353z"/>
<path style="fill:#b5a0a1; stroke:none;" d="M252 353L253 354L252 353M278 353L279 354L278 353z"/>
<path style="fill:#396b52; stroke:none;" d="M360 353L361 354L360 353z"/>
<path style="fill:#ffffff; stroke:none;" d="M406 353L407 354L406 353z"/>
<path style="fill:#396b52; stroke:none;" d="M266 354L267 355L266 354z"/>
<path style="fill:#ffffff; stroke:none;" d="M311 354L311 357C311.696 355.446 311.696 355.554 311 354z"/>
<path style="fill:#396b52; stroke:none;" d="M366 354L367 355L366 354z"/>
<path style="fill:#b5a0a1; stroke:none;" d="M268 355L269 356L268 355z"/>
<path style="fill:#ffffff; stroke:none;" d="M295 359C297.121 357.919 297.919 357.121 299 355C296.751 356.154 296.154 356.751 295 359z"/>
<path style="fill:#b5a0a1; stroke:none;" d="M342 355L343 356L342 355M345 355L346 356L345 355M412 355L413 356L412 355z"/>
<path style="fill:#396b52; stroke:none;" d="M270 356L271 357L270 356z"/>
<path style="fill:#ffffff; stroke:none;" d="M292 356L293 357L292 356z"/>
<path style="fill:#b5a0a1; stroke:none;" d="M204 358L205 359L204 358z"/>
<path style="fill:#396b52; stroke:none;" d="M274 358L275 359L274 358z"/>
<path style="fill:#b5a0a1; stroke:none;" d="M410 358L411 359L410 358z"/>
<path style="fill:#396b52; stroke:none;" d="M357 359L358 360L357 359M370 359L371 360L370 359z"/>
<path style="fill:#b5a0a1; stroke:none;" d="M402 359L403 360L402 359z"/>
<path style="fill:#396b52; stroke:none;" d="M261 360L262 361L261 360z"/>
<path style="fill:#b5a0a1; stroke:none;" d="M355 360L356 361L355 360z"/>
<path style="fill:#396b52; stroke:none;" d="M365 360C366.248 360.685 366.548 360.749 368 361C366.752 360.315 366.452 360.251 365 360z"/>
<path style="fill:#b5a0a1; stroke:none;" d="M401 360L402 361L401 360z"/>
<path style="fill:#ffffff; stroke:none;" d="M262 361L263 362L262 361z"/>
<path style="fill:#396b52; stroke:none;" d="M291 361L292 362L291 361z"/>
<path style="fill:#b5a0a1; stroke:none;" d="M207 362L208 363L207 362M214 362L215 363L214 362M294 362L295 363L294 362z"/>
<path style="fill:#396b52; stroke:none;" d="M305 362L306 363L305 362z"/>
<path style="fill:#b5a0a1; stroke:none;" d="M400 362L401 363L400 362M407 362L408 363L407 362M215 363L216 364L215 363z"/>
<path style="fill:#ffffff; stroke:none;" d="M267 363L268 364L267 363z"/>
<path style="fill:#396b52; stroke:none;" d="M330 363L331 364L330 363M332 363L333 364L332 363z"/>
<path style="fill:#b5a0a1; stroke:none;" d="M368 363L369 364L368 363M399 363L400 364L399 363z"/>
<path style="fill:#396b52; stroke:none;" d="M252 364L253 365L252 364M256 364L257 365L256 364M328 364L329 365L328 364z"/>
<path style="fill:#b5a0a1; stroke:none;" d="M334 364L335 365L334 364M364.667 364.333C364.222 364.778 365.278 364.722 365.333 364.667C365.778 364.222 364.722 364.278 364.667 364.333M209 365L210 366L209 365M272 365L273 366L272 365M350 365L351 366L350 365M362 365L363 366L362 365M405 365L406 366L405 365M210 366L211 367L210 366z"/>
<path style="fill:#396b52; stroke:none;" d="M274 366L275 367L274 366M326 366L327 367L326 366M335.333 366.667C335.278 366.722 335.222 367.778 335.667 367.333C335.722 367.278 335.778 366.222 335.333 366.667z"/>
<path style="fill:#b5a0a1; stroke:none;" d="M404 366L405 367L404 366M218 367L219 368L218 367M258 367L259 368L258 367M396 367L397 368L396 367z"/>
<path style="fill:#ffffff; stroke:none;" d="M219 368L220 369L219 368z"/>
<path style="fill:#b5a0a1; stroke:none;" d="M276 368L277 369L276 368M361 368L362 369L361 368z"/>
<path style="fill:#396b52; stroke:none;" d="M248 369L249 370L248 369z"/>
<path style="fill:#b5a0a1; stroke:none;" d="M282 369L282 373C282.71 371.241 282.71 370.759 282 369z"/>
<path style="fill:#396b52; stroke:none;" d="M325 369L326 370L325 369M213 370L214 371L213 370z"/>
<path style="fill:#ffffff; stroke:none;" d="M329 370L330 371L329 370z"/>
<path style="fill:#b5a0a1; stroke:none;" d="M360 370L361 371L360 370z"/>
<path style="fill:#396b52; stroke:none;" d="M401 370L402 371L401 370z"/>
<path style="fill:#b5a0a1; stroke:none;" d="M221 371L222 372L221 371M254 371L255 372L254 371M277 371L278 372L277 371M393 371L394 372L393 371z"/>
<path style="fill:#396b52; stroke:none;" d="M222 372L223 373L222 372z"/>
<path style="fill:#b5a0a1; stroke:none;" d="M251 372L251 375C251.696 373.446 251.696 373.554 251 372M328.333 372.667C328.278 372.722 328.222 373.778 328.667 373.333C328.722 373.278 328.778 372.222 328.333 372.667z"/>
<path style="fill:#396b52; stroke:none;" d="M392 372L393 373L392 372z"/>
<path style="fill:#b5a0a1; stroke:none;" d="M215 373L216 374L215 373M399 373L400 374L399 373z"/>
<path style="fill:#396b52; stroke:none;" d="M277 374L278 375L277 374z"/>
<path style="fill:#ffffff; stroke:none;" d="M350 374L351 375L350 374z"/>
<path style="fill:#b5a0a1; stroke:none;" d="M358 374L359 375L358 374z"/>
<path style="fill:#396b52; stroke:none;" d="M248 375L249 376L248 375M357 375L358 376L357 375M349 376L350 377L349 376z"/>
<path style="fill:#ffffff; stroke:none;" d="M388.333 376.667C388.278 376.722 388.222 377.778 388.667 377.333C388.722 377.278 388.778 376.222 388.333 376.667M226 377L227 378L226 377z"/>
<path style="fill:#b5a0a1; stroke:none;" d="M329 377L330 378L329 377M396 377L397 378L396 377M227 378L228 379L227 378z"/>
<path style="fill:#396b52; stroke:none;" d="M253 378L254 379L253 378z"/>
<path style="fill:#ffffff; stroke:none;" d="M275 378L276 379L275 378z"/>
<path style="fill:#b5a0a1; stroke:none;" d="M326 378L327 379L326 378z"/>
<path style="fill:#396b52; stroke:none;" d="M347 378L348 379L347 378z"/>
<path style="fill:#b5a0a1; stroke:none;" d="M387 378L388 379L387 378z"/>
<path style="fill:#396b52; stroke:none;" d="M254 379L255 380L254 379z"/>
<path style="fill:#ffffff; stroke:none;" d="M274 379L275 380L274 379z"/>
<path style="fill:#b5a0a1; stroke:none;" d="M354 379L355 380L354 379z"/>
<path style="fill:#ffffff; stroke:none;" d="M332 380L333 381L332 380z"/>
<path style="fill:#b5a0a1; stroke:none;" d="M345 380L346 381L345 380M353 380L354 381L353 380z"/>
<path style="fill:#396b52; stroke:none;" d="M277 381L278 382L277 381z"/>
<path style="fill:#ffffff; stroke:none;" d="M328 381L329 382L328 381z"/>
<path style="fill:#b5a0a1; stroke:none;" d="M352 381L353 382L352 381M260 382L261 383L260 382M269 382L270 383L269 382M336 382L337 383L336 382z"/>
<path style="fill:#ffffff; stroke:none;" d="M337 382C338.248 382.685 338.548 382.749 340 383C338.752 382.315 338.452 382.251 337 382z"/>
<path style="fill:#b5a0a1; stroke:none;" d="M340 382L341 383L340 382z"/>
<path style="fill:#396b52; stroke:none;" d="M223 383L224 384L223 383z"/>
<path style="fill:#b5a0a1; stroke:none;" d="M275 383L276 384L275 383z"/>
<path style="fill:#396b52; stroke:none;" d="M391 383L392 384L391 383z"/>
<path style="fill:#b5a0a1; stroke:none;" d="M224 384L225 385L224 384z"/>
<path style="fill:#396b52; stroke:none;" d="M232 384L233 385L232 384M256 384L257 385L256 384z"/>
<path style="fill:#b5a0a1; stroke:none;" d="M332 384L333 385L332 384z"/>
<path style="fill:#396b52; stroke:none;" d="M347 384L348 385L347 384M382 384L383 385L382 384z"/>
<path style="fill:#b5a0a1; stroke:none;" d="M390 384L391 385L390 384M233 385L234 386L233 385M258 385L259 386L258 385M270 385L271 386L270 385M334 385L335 386L334 385z"/>
<path style="fill:#396b52; stroke:none;" d="M345 385L346 386L345 385z"/>
<path style="fill:#b5a0a1; stroke:none;" d="M381 385L382 386L381 385M262 386L263 387L262 386z"/>
<path style="fill:#396b52; stroke:none;" d="M263.667 386.333C263.222 386.778 264.278 386.722 264.333 386.667C264.778 386.222 263.722 386.278 263.667 386.333z"/>
<path style="fill:#b5a0a1; stroke:none;" d="M265 386L266 387L265 386M338 386L339 387L338 386z"/>
<path style="fill:#396b52; stroke:none;" d="M339.667 386.333C339.222 386.778 340.278 386.722 340.333 386.667C340.778 386.222 339.722 386.278 339.667 386.333z"/>
<path style="fill:#b5a0a1; stroke:none;" d="M341 386L342 387L341 386z"/>
<path style="fill:#ffffff; stroke:none;" d="M378 388L379 389L378 388M376 390L377 391L376 390z"/>
<path style="fill:#b5a0a1; stroke:none;" d="M230 391L231 392L230 391M384 391L385 392L384 391z"/>
<path style="fill:#396b52; stroke:none;" d="M231 392L232 393L231 392M383 392L384 393L383 392z"/>
<path style="fill:#ffffff; stroke:none;" d="M250 402L251 403L250 402M364 402L365 403L364 402M251 403L252 404L251 403M362 404L363 405L362 404z"/>
<path style="fill:#b5a0a1; stroke:none;" d="M254 406L255 407L254 406M360 406L361 407L360 406M255 407L256 408L255 407M359 407L360 408L359 407z"/>
<path style="fill:#396b52; stroke:none;" d="M253 414L254 415L253 414M361 414L362 415L361 414z"/>
<path style="fill:#b5a0a1; stroke:none;" d="M254 415L255 416L254 415M360 415L361 416L360 415z"/>
<path style="fill:#ffffff; stroke:none;" d="M348 416L349 417L348 416z"/>
<path style="fill:#b5a0a1; stroke:none;" d="M267 417L268 418L267 417M347 417L348 418L347 417M346 418L347 419L346 418z"/>
<path style="fill:#396b52; stroke:none;" d="M269 419L270 420L269 419M345 419L346 420L345 419z"/>
<path style="fill:#b5a0a1; stroke:none;" d="M261 421L262 422L261 421M353 421L354 422L353 421z"/>
<path style="fill:#396b52; stroke:none;" d="M262 422L263 423L262 422M273 422L274 423L273 422M341 422L342 423L341 422M352 422L353 423L352 422z"/>
<path style="fill:#b5a0a1; stroke:none;" d="M268 427L269 428L268 427M346 427L347 428L346 427M281 428L282 429L281 428z"/>
<path style="fill:#396b52; stroke:none;" d="M333 428L334 429L333 428z"/>
<path style="fill:#b5a0a1; stroke:none;" d="M272 430L273 431L272 430M284 430L285 431L284 430M330 430L331 431L330 430M342 430L343 431L342 430M287 432L288 433L287 432z"/>
<path style="fill:#396b52; stroke:none;" d="M327 432L328 433L327 432z"/>
<path style="fill:#b5a0a1; stroke:none;" d="M276 433L277 434L276 433M338 433L339 434L338 433M277 434L278 435L277 434z"/>
<path style="fill:#ffffff; stroke:none;" d="M324 434L325 435L324 434z"/>
<path style="fill:#b5a0a1; stroke:none;" d="M337 434L338 435L337 434z"/>
<path style="fill:#396b52; stroke:none;" d="M279 435L280 436L279 435M335 435L336 436L335 435M280 436L281 437L280 436z"/>
<path style="fill:#b5a0a1; stroke:none;" d="M321 436L322 437L321 436z"/>
<path style="fill:#396b52; stroke:none;" d="M334 436L335 437L334 436M283 438L284 439L283 438M296 438L297 439L296 438M318 438L319 439L318 438M331 438L332 439L331 438z"/>
<path style="fill:#ffffff; stroke:none;" d="M298 439L299 440L298 439z"/>
<path style="fill:#b5a0a1; stroke:none;" d="M299 440L300 441L299 440M315 440L316 441L315 440M313 441L314 442L313 441z"/>
<path style="fill:#ffffff; stroke:none;" d="M303 442L304 443L303 442z"/>
<path style="fill:#b5a0a1; stroke:none;" d="M290 443L291 444L290 443M310 443L311 444L310 443M324 443L325 444L324 443z"/>
<path style="fill:#396b52; stroke:none;" d="M306 444L307 445L306 444z"/>
<path style="fill:#ffffff; stroke:none;" d="M307 444L308 445L307 444z"/>
<path style="fill:#396b52; stroke:none;" d="M308 444L309 445L308 444z"/>
</svg>
